<svg width="240" height="18" viewBox="0 0 240 18" fill="none" xmlns="http://www.w3.org/2000/svg">
                <path d="M0 0.394665H5.84395C7.7637 0.394665 9.26401 0.591998 10.3449 0.986664C11.4257 1.38133 12.3372 2.06377 13.0793 3.03399C14.1924 4.4811 14.749 6.33931 14.749 8.60864C14.749 11.0342 14.1118 13.0363 12.8373 14.615C11.4419 16.3581 9.19948 17.2296 6.11013 17.2296H0V0.394665ZM2.17787 2.47899V15.1453H5.80765C10.1311 15.1453 12.2929 12.9828 12.2929 8.65797C12.2929 6.4462 11.7484 4.86343 10.6595 3.90965C9.57859 2.95588 7.7758 2.47899 5.25108 2.47899H2.17787Z" fill="#4969DA" />
                <path d="M37.4956 0.394665L38.9718 17.2296H36.7334L35.7171 2.81199L30.0667 17.2296H27.6589L22.0086 2.81199L20.9922 17.2296H18.7539L20.23 0.394665H23.279L28.8568 14.7753L34.4466 0.394665H37.4956Z" fill="#4969DA" />
                <path d="M54.7129 4.37832H52.3778C52.0712 2.70921 51.0065 1.87466 49.1835 1.87466C48.2479 1.87466 47.4896 2.10899 46.9089 2.57766C46.3281 3.0381 46.0377 3.64243 46.0377 4.39065C46.0377 5.42665 46.9492 6.33931 48.7722 7.12864L51.0952 8.12764C52.5552 8.76075 53.5715 9.42264 54.1442 10.1133C54.7169 10.7957 55.0033 11.6961 55.0033 12.8143C55.0033 14.3847 54.4548 15.6181 53.3578 16.5143C52.2689 17.4105 50.7645 17.8586 48.8448 17.8586C45.3682 17.8586 43.392 16.3252 42.9161 13.2583H45.4328L45.4691 13.468C45.7917 15.0713 46.9653 15.8729 48.99 15.8729C50.0305 15.8729 50.8815 15.6222 51.5429 15.1206C52.2124 14.6108 52.5471 13.9572 52.5471 13.1596C52.5471 12.0578 51.6357 11.1164 49.8127 10.3353L47.7316 9.4473C46.2071 8.78953 45.1343 8.10297 44.5132 7.38764C43.9002 6.67231 43.5937 5.75143 43.5937 4.62499C43.5937 1.54166 45.4328 0 49.1109 0C52.4423 0 54.3056 1.41422 54.7008 4.24265L54.7129 4.37832Z" fill="#4969DA" />
                <path d="M63.8963 17.8232H62.7341C61.7396 17.8232 61.0342 17.5815 60.618 17.0983C60.2017 16.6032 59.9935 15.8076 59.9935 14.7113V7.17922C59.9935 6.20087 60.3404 5.49363 61.0342 5.0575C61.7281 4.60958 62.6532 4.38562 63.8095 4.38562C64.9659 4.38562 65.8852 4.60958 66.5675 5.0575C67.2497 5.49363 67.5909 6.20087 67.5909 7.17922V8.82355C67.5909 9.97871 67.1399 10.6977 66.2379 10.9806C67.2555 11.2282 67.7643 11.959 67.7643 13.1731V15.0296C67.7643 16.0079 67.4116 16.7211 66.7062 17.169C66.0008 17.6051 65.0642 17.8232 63.8963 17.8232ZM64.5033 11.6172H62.3352C62.1039 11.6172 61.9883 11.4109 61.9883 10.9983C61.9883 10.5858 62.1039 10.3795 62.3352 10.3795H64.3299C65.5788 10.3795 66.2032 9.86084 66.2032 8.82355V7.00241C66.2032 6.083 65.3995 5.62329 63.7922 5.62329C62.1848 5.62329 61.3812 6.083 61.3812 7.00241V14.7113C61.3812 15.395 61.4794 15.8783 61.676 16.1612C61.8842 16.4441 62.2369 16.5855 62.7341 16.5855H63.8616C65.5383 16.5855 66.3767 16.1258 66.3767 15.2064V13.1731C66.3767 12.1358 65.7522 11.6172 64.5033 11.6172Z" fill="#0A2465" />
                <path d="M78.5693 7.44444V15.2064C78.5693 16.1847 78.2224 16.8979 77.5286 17.3458C76.8464 17.7819 75.9386 18 74.8054 18C73.6721 18 72.7644 17.7819 72.0821 17.3458C71.3999 16.8979 71.0587 16.1847 71.0587 15.2064V7.44444C71.0587 7.17333 71.29 7.03777 71.7526 7.03777C72.2151 7.03777 72.4464 7.17333 72.4464 7.44444V15.3832C72.4464 16.3026 73.2327 16.7623 74.8054 16.7623C76.3896 16.7623 77.1817 16.3026 77.1817 15.3832V7.44444C77.1817 7.17333 77.413 7.03777 77.8755 7.03777C78.3381 7.03777 78.5693 7.17333 78.5693 7.44444Z" fill="#0A2465" />
                <path d="M83.7785 7.44444V15.6661C83.7785 16.0433 83.8653 16.3969 84.0387 16.727C84.2122 17.0452 84.2989 17.2102 84.2989 17.222C84.2989 17.3635 84.1891 17.5167 83.9694 17.6817C83.7496 17.835 83.5646 17.9116 83.4143 17.9116C83.1715 17.9116 82.9402 17.6994 82.7205 17.2751C82.5008 16.8389 82.3909 16.3616 82.3909 15.8429V7.44444C82.3909 7.17333 82.6222 7.03777 83.0847 7.03777C83.5473 7.03777 83.7785 7.17333 83.7785 7.44444ZM83.8306 3.67838V5.21663C83.8306 5.51131 83.5762 5.65865 83.0674 5.65865C82.5701 5.65865 82.3215 5.51131 82.3215 5.21663V3.67838C82.3215 3.3837 82.5701 3.23635 83.0674 3.23635C83.5762 3.23635 83.8306 3.3837 83.8306 3.67838Z" fill="#0A2465" />
                <path d="M88.9788 3.99664V15.6661C88.9788 16.0433 89.0656 16.3969 89.239 16.727C89.4125 17.0452 89.4992 17.2102 89.4992 17.222C89.4992 17.3635 89.3893 17.5167 89.1696 17.6817C88.9499 17.835 88.7649 17.9116 88.6146 17.9116C88.3717 17.9116 88.1405 17.6994 87.9207 17.2751C87.701 16.8389 87.5912 16.3616 87.5912 15.8429V3.99664C87.5912 3.72553 87.8225 3.58997 88.285 3.58997C88.7476 3.58997 88.9788 3.72553 88.9788 3.99664Z" fill="#0A2465" />
                <path d="M100.129 3.99664V15.2064C100.129 16.1847 99.7875 16.8979 99.1052 17.3458C98.423 17.7819 97.5152 18 96.382 18C95.2487 18 94.3352 17.7819 93.6414 17.3458C92.9591 16.8979 92.618 16.1847 92.618 15.2064V9.91978C92.618 8.94143 92.9591 8.23419 93.6414 7.79806C94.3236 7.35014 95.2314 7.12618 96.3646 7.12618H97.8737C98.105 7.12618 98.2206 7.33246 98.2206 7.74501C98.2206 8.15757 98.105 8.36385 97.8737 8.36385H96.3646C94.792 8.36385 94.0056 8.82355 94.0056 9.74297V15.3832C94.0056 16.3026 94.792 16.7623 96.3646 16.7623C97.9488 16.7623 98.741 16.3026 98.741 15.3832V3.99664C98.741 3.72553 98.9722 3.58997 99.4348 3.58997C99.8973 3.58997 100.129 3.72553 100.129 3.99664Z" fill="#0A2465" />
                <path d="M111.361 9.6192V10.1496C111.361 11.1516 111.159 11.8411 110.754 12.2183C110.349 12.5955 109.609 12.8371 108.534 12.9432L105.151 13.2792V15.3832C105.151 16.3026 105.903 16.7623 107.406 16.7623C109.118 16.7623 109.974 16.3616 109.974 15.56V14.8881C109.974 14.617 110.205 14.4815 110.667 14.4815C111.13 14.4815 111.361 14.617 111.361 14.8881V15.3832C111.361 17.1277 110.089 18 107.545 18C106.423 18 105.51 17.776 104.805 17.3281C104.111 16.8802 103.764 16.173 103.764 15.2064V9.65456C103.764 8.67621 104.134 7.96897 104.874 7.53284C105.614 7.08492 106.58 6.86096 107.771 6.86096C108.962 6.86096 109.858 7.07313 110.459 7.49748C111.061 7.92182 111.361 8.62906 111.361 9.6192ZM105.151 9.47775V12.0415L108.412 11.7056C109.072 11.6348 109.494 11.4934 109.679 11.2812C109.875 11.069 109.974 10.6918 109.974 10.1496V9.47775C109.974 8.55834 109.17 8.09863 107.563 8.09863C105.955 8.09863 105.151 8.55834 105.151 9.47775Z" fill="#0A2465" />
                <path d="M119.612 10.3618V9.47775C119.612 8.55834 119.075 8.09863 117.999 8.09863C116.924 8.09863 116.386 8.55834 116.386 9.47775V17.5933C116.386 17.8644 116.155 18 115.692 18C115.23 18 114.998 17.8644 114.998 17.5933V9.65456C114.998 8.67621 115.27 7.96897 115.814 7.53284C116.369 7.08492 117.097 6.86096 117.999 6.86096C120 6.86096 121 7.78037 121 9.6192V10.3618C121 10.6329 120.769 10.7685 120.306 10.7685C119.844 10.7685 119.612 10.6329 119.612 10.3618Z" fill="#0A2465" />
            </svg>