<?xml version="1.0" encoding="utf-8"?>
<!-- Generator: Adobe Illustrator 19.0.0, SVG Export Plug-In . SVG Version: 6.00 Build 0)  -->
<svg version="1.1" xmlns="http://www.w3.org/2000/svg" xmlns:xlink="http://www.w3.org/1999/xlink" x="0px" y="0px"
	 viewBox="0 0 379 86.3" style="enable-background:new 0 0 379 86.3;" xml:space="preserve">
<style type="text/css">
	.st0{fill:#1186B1;}
	.st1{fill:#0B668E;}
	.st2{fill:#D92817;}
</style>
<g id="色號_x2F_背景">
</g>
<g id="logo">
	<g>
		<polygon class="st0" points="69.8,48.9 69.8,10 41.3,10 41.3,48.9 55.5,31.1 		"/>
		<polygon class="st0" points="22.8,9.9 14.8,9.9 14.8,17.9 14.8,47.5 22.8,47.5 22.8,17.9 37.1,17.9 37.1,9.9 		"/>
		<polygon class="st0" points="88.2,51.6 88.2,77.1 70.4,77.1 55.7,58.4 40.9,77.1 22.8,77.1 22.8,51.6 14.8,51.6 14.8,77.1 
			14.8,85.1 22.8,85.1 60.7,85.1 63,85.1 88.2,85.1 96.2,85.1 96.2,77.1 96.2,51.6 		"/>
		<polygon class="st0" points="96.2,9.9 88.2,9.9 73.9,9.9 73.9,17.9 88.2,17.9 88.2,47.5 96.2,47.5 96.2,17.9 		"/>
	</g>
	<g>
		<polygon class="st0" points="288.5,13.2 281.5,38 274.5,13.2 261.9,13.2 274.2,56.6 276.2,56.6 286.8,56.6 288.9,56.6 301.2,13.2 
					"/>
		<g>
			<path class="st0" d="M352,13.2v25.4h0c-0.2,4.6-3.9,8.4-8.6,8.5v0c0,0-0.1,0-0.1,0c0,0-0.1,0-0.1,0v0c-4.6-0.1-8.4-3.9-8.6-8.5h0
				V13.2h-12.1v24.1c0.2,11.3,9.2,20.5,20.5,20.8v0c0.1,0,0.2,0,0.3,0c0.1,0,0.2,0,0.3,0v0c11.3-0.3,20.3-9.5,20.5-20.8V13.2H352z"
				/>
		</g>
		<polygon class="st0" points="305.4,13.2 305.4,37.1 305.4,49.9 305.4,56.7 316.9,56.7 316.9,42 316.9,29.2 316.9,13.2 		"/>
		<polygon class="st1" points="168.3,31 168.3,45.6 168.3,52.9 168.3,56.7 180.6,56.7 180.6,48.4 180.6,41.2 180.6,31 		"/>
		<polygon class="st1" points="267.6,56.4 255.5,13.6 253.5,13.6 243.1,13.6 241.1,13.6 229,56.4 241.4,56.4 248.3,32 255.2,56.4 		
			"/>
		<polygon class="st1" points="226.2,13.5 188.8,13.5 188.8,25.5 205.2,25.5 205.2,25.5 209.8,25.5 188.8,44.5 188.8,56.5 
			226.2,56.5 226.2,44.5 205.7,44.5 226.2,25.5 		"/>
		<polygon class="st1" points="114.3,56.3 114.3,13.6 126.9,13.6 126.9,34.7 136.9,22.2 146.9,34.7 146.9,13.6 159.5,13.6 
			159.5,56.4 146.9,56.4 137,42.4 126.9,56.4 		"/>
		<g>
			<path class="st2" d="M181.3,19.9c0,3.8-3.1,6.8-6.8,6.8c-3.8,0-6.8-3.1-6.8-6.8c0-3.8,3.1-6.8,6.8-6.8
				C178.3,13.1,181.3,16.1,181.3,19.9"/>
		</g>
	</g>
	<g>
		<path class="st0" d="M113.5,78.6l2.1-0.2c0.1,0.8,0.3,1.5,0.7,2.1c0.4,0.5,0.9,1,1.7,1.3c0.8,0.3,1.6,0.5,2.6,0.5
			c0.8,0,1.6-0.1,2.3-0.4c0.7-0.3,1.1-0.6,1.5-1c0.3-0.4,0.5-0.9,0.5-1.4c0-0.5-0.2-1-0.5-1.4c-0.3-0.4-0.8-0.7-1.5-1
			c-0.5-0.2-1.5-0.4-3-0.8c-1.5-0.4-2.6-0.7-3.2-1.1c-0.8-0.4-1.4-0.9-1.8-1.6c-0.4-0.6-0.6-1.3-0.6-2.1c0-0.8,0.2-1.6,0.7-2.4
			c0.5-0.7,1.2-1.3,2.1-1.7c0.9-0.4,2-0.6,3.1-0.6c1.2,0,2.3,0.2,3.3,0.6c1,0.4,1.7,1,2.2,1.8c0.5,0.8,0.8,1.7,0.8,2.7l-2.1,0.2
			c-0.1-1.1-0.5-1.9-1.2-2.4c-0.7-0.5-1.6-0.8-2.9-0.8c-1.3,0-2.3,0.2-2.9,0.7c-0.6,0.5-0.9,1.1-0.9,1.8c0,0.6,0.2,1.1,0.7,1.5
			c0.4,0.4,1.5,0.8,3.4,1.2c1.8,0.4,3.1,0.8,3.7,1.1c1,0.5,1.7,1,2.2,1.7c0.5,0.7,0.7,1.5,0.7,2.4c0,0.9-0.3,1.7-0.8,2.5
			s-1.2,1.4-2.2,1.8c-1,0.4-2,0.7-3.2,0.7c-1.5,0-2.8-0.2-3.8-0.7c-1-0.4-1.8-1.1-2.4-2C113.8,80.7,113.5,79.7,113.5,78.6z"/>
		<path class="st0" d="M129.5,84V71.8h1.8v1.7c0.4-0.6,0.9-1.1,1.5-1.4c0.6-0.4,1.4-0.5,2.2-0.5c0.9,0,1.6,0.2,2.2,0.6
			s1,0.9,1.2,1.6c1-1.4,2.2-2.1,3.8-2.1c1.2,0,2.1,0.3,2.8,1c0.7,0.7,1,1.7,1,3.1V84H144v-7.7c0-0.8-0.1-1.4-0.2-1.8
			c-0.1-0.4-0.4-0.7-0.7-0.9c-0.4-0.2-0.8-0.3-1.2-0.3c-0.9,0-1.6,0.3-2.1,0.9s-0.8,1.5-0.8,2.7V84h-2.1v-7.9c0-0.9-0.2-1.6-0.5-2.1
			c-0.3-0.5-0.9-0.7-1.7-0.7c-0.6,0-1.1,0.2-1.6,0.5c-0.5,0.3-0.9,0.8-1.1,1.3c-0.2,0.6-0.3,1.4-0.3,2.5V84H129.5z"/>
		<path class="st0" d="M156.9,82.5c-0.8,0.7-1.5,1.1-2.2,1.4c-0.7,0.3-1.5,0.4-2.3,0.4c-1.3,0-2.4-0.3-3.1-1
			c-0.7-0.7-1.1-1.5-1.1-2.5c0-0.6,0.1-1.1,0.4-1.6c0.3-0.5,0.6-0.9,1.1-1.2c0.4-0.3,0.9-0.5,1.5-0.7c0.4-0.1,1-0.2,1.8-0.3
			c1.7-0.2,2.9-0.4,3.7-0.7c0-0.3,0-0.5,0-0.5c0-0.8-0.2-1.4-0.6-1.8c-0.5-0.5-1.3-0.7-2.4-0.7c-1,0-1.7,0.2-2.2,0.5
			c-0.5,0.3-0.8,0.9-1,1.8l-2-0.3c0.2-0.9,0.5-1.6,0.9-2.1s1-0.9,1.8-1.2s1.7-0.4,2.8-0.4c1,0,1.9,0.1,2.5,0.4
			c0.7,0.2,1.1,0.6,1.4,0.9c0.3,0.4,0.5,0.8,0.6,1.4c0.1,0.4,0.1,1,0.1,1.9v2.8c0,1.9,0,3.1,0.1,3.6s0.3,1,0.5,1.5h-2.2
			C157.1,83.6,156.9,83.1,156.9,82.5z M156.7,77.9c-0.8,0.3-1.9,0.6-3.4,0.8c-0.8,0.1-1.5,0.3-1.8,0.4c-0.4,0.2-0.6,0.4-0.8,0.7
			s-0.3,0.6-0.3,1c0,0.6,0.2,1,0.6,1.4s1,0.6,1.8,0.6c0.8,0,1.5-0.2,2.1-0.5c0.6-0.3,1.1-0.8,1.4-1.4c0.2-0.5,0.3-1.2,0.3-2.1V77.9z
			"/>
		<path class="st0" d="M161.8,84V71.8h1.9v1.8c0.5-0.9,0.9-1.4,1.3-1.7c0.4-0.3,0.8-0.4,1.3-0.4c0.7,0,1.4,0.2,2.1,0.7l-0.7,1.9
			c-0.5-0.3-1-0.4-1.5-0.4c-0.5,0-0.9,0.1-1.2,0.4c-0.4,0.3-0.6,0.6-0.8,1.1c-0.2,0.7-0.3,1.5-0.3,2.4V84H161.8z"/>
		<path class="st0" d="M174,82.1l0.3,1.8c-0.6,0.1-1.1,0.2-1.6,0.2c-0.8,0-1.3-0.1-1.7-0.4c-0.4-0.2-0.7-0.5-0.9-0.9
			c-0.2-0.4-0.3-1.2-0.3-2.4v-7h-1.5v-1.6h1.5v-3l2.1-1.2v4.3h2.1v1.6h-2.1v7.1c0,0.6,0,1,0.1,1.1c0.1,0.2,0.2,0.3,0.4,0.4
			s0.4,0.1,0.7,0.1C173.3,82.2,173.6,82.2,174,82.1z"/>
		<path class="st0" d="M194.5,78.1l2.2,0.6c-0.5,1.8-1.3,3.2-2.5,4.2c-1.2,1-2.7,1.4-4.4,1.4c-1.8,0-3.3-0.4-4.4-1.1
			c-1.1-0.7-2-1.8-2.6-3.2c-0.6-1.4-0.9-2.9-0.9-4.5c0-1.8,0.3-3.3,1-4.6c0.7-1.3,1.6-2.3,2.9-3c1.2-0.7,2.6-1,4.1-1
			c1.7,0,3.1,0.4,4.2,1.3c1.1,0.9,1.9,2.1,2.4,3.6l-2.2,0.5c-0.4-1.2-1-2.1-1.7-2.7c-0.7-0.6-1.7-0.8-2.8-0.8
			c-1.3,0-2.4,0.3-3.2,0.9c-0.9,0.6-1.5,1.5-1.8,2.5s-0.5,2.1-0.5,3.2c0,1.4,0.2,2.7,0.6,3.7c0.4,1.1,1.1,1.9,1.9,2.4
			s1.8,0.8,2.9,0.8c1.2,0,2.3-0.4,3.2-1.1C193.6,80.6,194.2,79.5,194.5,78.1z"/>
		<path class="st0" d="M207,82.5c-0.8,0.7-1.5,1.1-2.2,1.4c-0.7,0.3-1.5,0.4-2.3,0.4c-1.3,0-2.4-0.3-3.1-1c-0.7-0.7-1.1-1.5-1.1-2.5
			c0-0.6,0.1-1.1,0.4-1.6c0.3-0.5,0.6-0.9,1.1-1.2c0.4-0.3,0.9-0.5,1.5-0.7c0.4-0.1,1-0.2,1.8-0.3c1.7-0.2,2.9-0.4,3.7-0.7
			c0-0.3,0-0.5,0-0.5c0-0.8-0.2-1.4-0.6-1.8c-0.5-0.5-1.3-0.7-2.4-0.7c-1,0-1.7,0.2-2.2,0.5c-0.5,0.3-0.8,0.9-1,1.8l-2-0.3
			c0.2-0.9,0.5-1.6,0.9-2.1s1-0.9,1.8-1.2s1.7-0.4,2.8-0.4c1,0,1.9,0.1,2.5,0.4c0.7,0.2,1.1,0.6,1.4,0.9c0.3,0.4,0.5,0.8,0.6,1.4
			c0.1,0.4,0.1,1,0.1,1.9v2.8c0,1.9,0,3.1,0.1,3.6s0.3,1,0.5,1.5h-2.2C207.2,83.6,207.1,83.1,207,82.5z M206.8,77.9
			c-0.8,0.3-1.9,0.6-3.4,0.8c-0.8,0.1-1.5,0.3-1.8,0.4c-0.4,0.2-0.6,0.4-0.8,0.7s-0.3,0.6-0.3,1c0,0.6,0.2,1,0.6,1.4s1,0.6,1.8,0.6
			c0.8,0,1.5-0.2,2.1-0.5c0.6-0.3,1.1-0.8,1.4-1.4c0.2-0.5,0.3-1.2,0.3-2.1V77.9z"/>
		<path class="st0" d="M212,84V71.8h1.8v1.7c0.4-0.6,0.9-1.1,1.5-1.4c0.6-0.4,1.4-0.5,2.2-0.5c0.9,0,1.6,0.2,2.2,0.6s1,0.9,1.2,1.6
			c1-1.4,2.2-2.1,3.8-2.1c1.2,0,2.1,0.3,2.8,1c0.7,0.7,1,1.7,1,3.1V84h-2.1v-7.7c0-0.8-0.1-1.4-0.2-1.8c-0.1-0.4-0.4-0.7-0.7-0.9
			c-0.4-0.2-0.8-0.3-1.2-0.3c-0.9,0-1.6,0.3-2.1,0.9s-0.8,1.5-0.8,2.7V84h-2.1v-7.9c0-0.9-0.2-1.6-0.5-2.1c-0.3-0.5-0.9-0.7-1.7-0.7
			c-0.6,0-1.1,0.2-1.6,0.5c-0.5,0.3-0.9,0.8-1.1,1.3c-0.2,0.6-0.3,1.4-0.3,2.5V84H212z"/>
		<path class="st0" d="M239.7,80.1l2.1,0.3c-0.3,1.2-1,2.2-1.9,2.9c-0.9,0.7-2.1,1-3.5,1c-1.8,0-3.2-0.5-4.2-1.6s-1.6-2.6-1.6-4.6
			c0-2.1,0.5-3.6,1.6-4.8c1.1-1.1,2.4-1.7,4.1-1.7c1.6,0,3,0.6,4,1.7s1.5,2.7,1.5,4.7c0,0.1,0,0.3,0,0.6h-9.1
			c0.1,1.3,0.5,2.4,1.1,3.1c0.7,0.7,1.5,1.1,2.5,1.1c0.8,0,1.4-0.2,1.9-0.6C239,81.6,239.4,80.9,239.7,80.1z M232.9,76.7h6.8
			c-0.1-1-0.4-1.8-0.8-2.3c-0.7-0.8-1.5-1.2-2.6-1.2c-0.9,0-1.7,0.3-2.4,1C233.4,74.8,233,75.7,232.9,76.7z"/>
		<path class="st0" d="M244.3,84V71.8h1.9v1.8c0.5-0.9,0.9-1.4,1.3-1.7c0.4-0.3,0.8-0.4,1.3-0.4c0.7,0,1.4,0.2,2.1,0.7l-0.7,1.9
			c-0.5-0.3-1-0.4-1.5-0.4c-0.5,0-0.9,0.1-1.2,0.4c-0.4,0.3-0.6,0.6-0.8,1.1c-0.2,0.7-0.3,1.5-0.3,2.4V84H244.3z"/>
		<path class="st0" d="M259.9,82.5c-0.8,0.7-1.5,1.1-2.2,1.4c-0.7,0.3-1.5,0.4-2.3,0.4c-1.3,0-2.4-0.3-3.1-1
			c-0.7-0.7-1.1-1.5-1.1-2.5c0-0.6,0.1-1.1,0.4-1.6c0.3-0.5,0.6-0.9,1.1-1.2c0.4-0.3,0.9-0.5,1.5-0.7c0.4-0.1,1-0.2,1.8-0.3
			c1.7-0.2,2.9-0.4,3.7-0.7c0-0.3,0-0.5,0-0.5c0-0.8-0.2-1.4-0.6-1.8c-0.5-0.5-1.3-0.7-2.4-0.7c-1,0-1.7,0.2-2.2,0.5
			c-0.5,0.3-0.8,0.9-1,1.8l-2-0.3c0.2-0.9,0.5-1.6,0.9-2.1s1-0.9,1.8-1.2s1.7-0.4,2.8-0.4c1,0,1.9,0.1,2.5,0.4
			c0.7,0.2,1.1,0.6,1.4,0.9c0.3,0.4,0.5,0.8,0.6,1.4c0.1,0.4,0.1,1,0.1,1.9v2.8c0,1.9,0,3.1,0.1,3.6s0.3,1,0.5,1.5h-2.2
			C260.1,83.6,260,83.1,259.9,82.5z M259.7,77.9c-0.8,0.3-1.9,0.6-3.4,0.8c-0.8,0.1-1.5,0.3-1.8,0.4c-0.4,0.2-0.6,0.4-0.8,0.7
			s-0.3,0.6-0.3,1c0,0.6,0.2,1,0.6,1.4s1,0.6,1.8,0.6c0.8,0,1.5-0.2,2.1-0.5c0.6-0.3,1.1-0.8,1.4-1.4c0.2-0.5,0.3-1.2,0.3-2.1V77.9z
			"/>
		<path class="st0" d="M270.7,78.6l2.1-0.2c0.1,0.8,0.3,1.5,0.7,2.1c0.4,0.5,0.9,1,1.7,1.3c0.8,0.3,1.6,0.5,2.6,0.5
			c0.8,0,1.6-0.1,2.3-0.4c0.7-0.3,1.1-0.6,1.5-1c0.3-0.4,0.5-0.9,0.5-1.4c0-0.5-0.2-1-0.5-1.4c-0.3-0.4-0.8-0.7-1.5-1
			c-0.5-0.2-1.5-0.4-3-0.8c-1.5-0.4-2.6-0.7-3.2-1.1c-0.8-0.4-1.4-0.9-1.8-1.6c-0.4-0.6-0.6-1.3-0.6-2.1c0-0.8,0.2-1.6,0.7-2.4
			c0.5-0.7,1.2-1.3,2.1-1.7c0.9-0.4,2-0.6,3.1-0.6c1.2,0,2.3,0.2,3.3,0.6c1,0.4,1.7,1,2.2,1.8c0.5,0.8,0.8,1.7,0.8,2.7l-2.1,0.2
			c-0.1-1.1-0.5-1.9-1.2-2.4c-0.7-0.5-1.6-0.8-2.9-0.8c-1.3,0-2.3,0.2-2.9,0.7c-0.6,0.5-0.9,1.1-0.9,1.8c0,0.6,0.2,1.1,0.7,1.5
			c0.4,0.4,1.5,0.8,3.4,1.2c1.8,0.4,3.1,0.8,3.7,1.1c1,0.5,1.7,1,2.2,1.7c0.5,0.7,0.7,1.5,0.7,2.4c0,0.9-0.3,1.7-0.8,2.5
			s-1.2,1.4-2.2,1.8c-1,0.4-2,0.7-3.2,0.7c-1.5,0-2.8-0.2-3.8-0.7c-1-0.4-1.8-1.1-2.4-2C271.1,80.7,270.8,79.7,270.7,78.6z"/>
		<path class="st0" d="M286,77.9c0-2.3,0.6-3.9,1.9-5c1-0.9,2.3-1.4,3.8-1.4c1.7,0,3,0.5,4.1,1.6c1.1,1.1,1.6,2.6,1.6,4.6
			c0,1.6-0.2,2.8-0.7,3.7s-1.2,1.6-2.1,2.1s-1.9,0.7-2.9,0.7c-1.7,0-3.1-0.5-4.1-1.6S286,80,286,77.9z M288.1,77.9
			c0,1.6,0.3,2.7,1,3.5c0.7,0.8,1.5,1.2,2.6,1.2c1,0,1.9-0.4,2.6-1.2s1-2,1-3.6c0-1.5-0.3-2.7-1-3.4c-0.7-0.8-1.5-1.2-2.6-1.2
			c-1,0-1.9,0.4-2.6,1.2C288.5,75.2,288.1,76.3,288.1,77.9z"/>
		<path class="st0" d="M299.6,84V67.2h2.1V84H299.6z"/>
		<path class="st0" d="M312.7,84v-1.8c-0.9,1.4-2.2,2.1-3.9,2.1c-0.7,0-1.4-0.1-2-0.4s-1.1-0.6-1.4-1c-0.3-0.4-0.5-0.9-0.6-1.5
			c-0.1-0.4-0.1-1-0.1-1.9v-7.6h2.1v6.8c0,1.1,0,1.8,0.1,2.2c0.1,0.5,0.4,1,0.8,1.3c0.4,0.3,0.9,0.5,1.6,0.5s1.2-0.2,1.7-0.5
			s0.9-0.8,1.2-1.3c0.2-0.5,0.3-1.3,0.3-2.4v-6.5h2.1V84H312.7z"/>
		<path class="st0" d="M322.2,82.1l0.3,1.8c-0.6,0.1-1.1,0.2-1.6,0.2c-0.8,0-1.3-0.1-1.7-0.4c-0.4-0.2-0.7-0.5-0.9-0.9
			c-0.2-0.4-0.3-1.2-0.3-2.4v-7h-1.5v-1.6h1.5v-3l2.1-1.2v4.3h2.1v1.6h-2.1v7.1c0,0.6,0,1,0.1,1.1c0.1,0.2,0.2,0.3,0.4,0.4
			s0.4,0.1,0.7,0.1C321.5,82.2,321.8,82.2,322.2,82.1z"/>
		<path class="st0" d="M324,69.5v-2.4h2.1v2.4H324z M324,84V71.8h2.1V84H324z"/>
		<path class="st0" d="M328.3,77.9c0-2.3,0.6-3.9,1.9-5c1-0.9,2.3-1.4,3.8-1.4c1.7,0,3,0.5,4.1,1.6c1.1,1.1,1.6,2.6,1.6,4.6
			c0,1.6-0.2,2.8-0.7,3.7s-1.2,1.6-2.1,2.1s-1.9,0.7-2.9,0.7c-1.7,0-3.1-0.5-4.1-1.6S328.3,80,328.3,77.9z M330.4,77.9
			c0,1.6,0.3,2.7,1,3.5c0.7,0.8,1.5,1.2,2.6,1.2c1,0,1.9-0.4,2.6-1.2s1-2,1-3.6c0-1.5-0.3-2.7-1-3.4c-0.7-0.8-1.5-1.2-2.6-1.2
			c-1,0-1.9,0.4-2.6,1.2C330.8,75.2,330.4,76.3,330.4,77.9z"/>
		<path class="st0" d="M342,84V71.8h1.9v1.7c0.9-1.3,2.2-2,3.9-2c0.7,0,1.4,0.1,2,0.4c0.6,0.3,1.1,0.6,1.4,1
			c0.3,0.4,0.5,0.9,0.6,1.5c0.1,0.4,0.1,1.1,0.1,2V84h-2.1v-7.4c0-0.8-0.1-1.5-0.2-1.9s-0.4-0.8-0.9-1c-0.4-0.2-0.9-0.4-1.4-0.4
			c-0.9,0-1.6,0.3-2.3,0.8c-0.6,0.6-1,1.6-1,3.2V84H342z"/>
		<path class="st0" d="M354.1,80.4l2-0.3c0.1,0.8,0.4,1.4,1,1.9s1.3,0.7,2.2,0.7c0.9,0,1.7-0.2,2.1-0.6c0.5-0.4,0.7-0.8,0.7-1.4
			c0-0.5-0.2-0.8-0.6-1.1c-0.3-0.2-1-0.4-2.1-0.7c-1.5-0.4-2.6-0.7-3.2-1c-0.6-0.3-1-0.7-1.3-1.2c-0.3-0.5-0.5-1-0.5-1.6
			c0-0.5,0.1-1,0.4-1.5c0.2-0.5,0.6-0.8,1-1.2c0.3-0.2,0.8-0.4,1.3-0.6s1.1-0.2,1.8-0.2c1,0,1.8,0.1,2.5,0.4
			c0.7,0.3,1.3,0.6,1.6,1.1c0.3,0.5,0.6,1.1,0.7,1.9l-2,0.3c-0.1-0.6-0.4-1.1-0.8-1.5c-0.4-0.4-1.1-0.5-1.9-0.5
			c-0.9,0-1.6,0.2-2,0.5c-0.4,0.3-0.6,0.7-0.6,1.1c0,0.3,0.1,0.5,0.3,0.7c0.2,0.2,0.4,0.4,0.8,0.6c0.2,0.1,0.8,0.3,1.8,0.5
			c1.5,0.4,2.5,0.7,3.1,1c0.6,0.2,1,0.6,1.4,1.1s0.5,1.1,0.5,1.8c0,0.7-0.2,1.3-0.6,1.9s-1,1.1-1.7,1.4c-0.8,0.3-1.6,0.5-2.6,0.5
			c-1.6,0-2.8-0.3-3.6-1S354.3,81.6,354.1,80.4z"/>
	</g>
	<g>
	</g>
	<g>
	</g>
	<g>
	</g>
	<g>
	</g>
	<g>
	</g>
	<g>
	</g>
</g>
</svg>
