<?xml version="1.0" encoding="utf-8"?>
<!-- Generator: Adobe Illustrator 19.0.0, SVG Export Plug-In . SVG Version: 6.00 Build 0)  -->
<svg version="1.1" xmlns="http://www.w3.org/2000/svg" xmlns:xlink="http://www.w3.org/1999/xlink" x="0px" y="0px"
	 viewBox="0 0 1949.2 375" style="enable-background:new 0 0 1949.2 375;" xml:space="preserve">
<style type="text/css">
	.st0{fill:#0B668E;}
	.st1{fill:#1186B1;}
	.st2{fill:#D92817;}
	.st3{fill:#3E3A39;}
	.st4{fill:#FFFFFF;}
	.st5{fill:none;stroke:#9FA0A0;stroke-width:0.5;stroke-miterlimit:10;}
	.st6{fill:#9FA0A0;}
</style>
<g id="色號_x2F_背景">
	<rect x="934.1" y="-1200.9" width="553.8" height="841.9"/>
	<rect x="485.4" y="-503.2" class="st0" width="47.9" height="47.9"/>
	<rect x="634.8" y="-502.2" class="st1" width="47.9" height="47.9"/>
	<rect x="783.2" y="-502.2" class="st2" width="47.9" height="47.9"/>
	<rect x="760.3" y="-418.2" class="st2" width="20.2" height="20.1"/>
	<g>
		<path class="st3" d="M622.3-437.5l0.6,0.2c-0.4,1.5-1.4,2.3-3.1,2.3c-2-0.1-3.1-1.3-3.2-3.5c0.1-2.3,1.2-3.6,3.3-3.7
			c1.4,0,2.3,0.7,2.8,2l-0.6,0.1c-0.4-1.1-1.2-1.6-2.3-1.7c-1.6,0.1-2.5,1.2-2.6,3.1c0.1,2,0.9,3,2.6,3.2
			C621.2-435.5,622-436.2,622.3-437.5z"/>
		<path class="st3" d="M626.1-438.8c-0.7-0.3-1.1-0.9-1.1-1.6c0.1-1.2,0.8-1.8,2.1-1.9c1.3,0.1,2,0.7,2.1,1.9c0,0.8-0.4,1.3-1.1,1.6
			c0.8,0.3,1.3,0.9,1.4,1.9c0,1.2-0.8,1.8-2.4,1.9c-1.5,0-2.3-0.7-2.4-1.9C624.8-438,625.2-438.6,626.1-438.8z M627-438.6
			c-1.1,0-1.7,0.6-1.8,1.6c0,1,0.7,1.5,1.8,1.5c1.2,0,1.8-0.5,1.8-1.4C628.8-438,628.2-438.6,627-438.6z M627-441.9
			c-1,0-1.5,0.5-1.5,1.4c0,0.9,0.5,1.4,1.5,1.4c1,0,1.5-0.5,1.5-1.4C628.5-441.3,628-441.8,627-441.9z"/>
		<path class="st3" d="M633.5-442.3c1.5,0,2.3,1.2,2.3,3.7c0,2.3-0.8,3.5-2.3,3.6c-1.5,0-2.3-1.2-2.4-3.6
			C631.2-441,632-442.2,633.5-442.3z M633.5-435.5c1.2,0,1.8-1,1.8-3.1c0-2.2-0.6-3.2-1.8-3.2c-1.1,0-1.7,1.1-1.7,3.2
			C631.7-436.5,632.3-435.5,633.5-435.5z"/>
		<path class="st3" d="M647.1-442.2h0.9v7h-0.5v-6.6h-0.1l-2.6,6.6h-0.5l-2.6-6.6h-0.1v6.6h-0.5v-7h0.9l2.5,6.4h0L647.1-442.2z"/>
		<path class="st3" d="M654.7-437.1c-0.1,1.3-0.8,2-2.3,2c-1.3,0-2.1-0.6-2.4-1.8l0.5-0.1c0.2,1,0.8,1.5,1.8,1.5
			c1.2,0,1.8-0.6,1.8-1.7c0-0.9-0.6-1.4-1.9-1.4h-0.6v-0.4h0.4c1.2,0,1.8-0.5,1.8-1.4c0-0.9-0.5-1.4-1.5-1.4c-1,0-1.5,0.5-1.7,1.5
			l-0.5-0.2c0.3-1.2,1-1.8,2.2-1.8c1.3,0,2,0.6,2.1,1.8c0,0.8-0.5,1.3-1.3,1.6v0C654.1-438.7,654.6-438.1,654.7-437.1z"/>
		<path class="st3" d="M658.9-439.8c1.4,0.1,2.1,0.8,2.2,2.3c0,1.6-0.8,2.4-2.3,2.5c-1.3,0-2.1-0.6-2.4-1.9l0.5-0.1
			c0.2,1.1,0.8,1.6,1.8,1.6c1.2,0,1.8-0.7,1.8-2c0-1.2-0.6-1.9-1.8-1.9c-0.8,0-1.3,0.3-1.7,0.9l-0.4-0.1l0.4-3.7h3.6v0.5h-3.2
			l-0.3,2.6C657.6-439.6,658.2-439.8,658.9-439.8z"/>
		<path class="st3" d="M672.3-442.2l-3,4v3h-0.5v-3l-2.9-4h0.6l2.6,3.6l2.7-3.6H672.3z"/>
		<path class="st3" d="M675.6-441.3c-0.4,0.5-1,1-2.1,1.5c0-0.2,0-0.3,0-0.5c1.2-0.6,1.9-1.3,2.2-2h0.4v7.1h-0.5V-441.3z"/>
		<path class="st3" d="M679-436.6l0.5-0.2c0.3,0.9,0.8,1.3,1.6,1.3c1.3,0,2-1.1,2-3.2c-0.4,0.8-1.1,1.2-2.1,1.2
			c-1.3-0.1-2-0.9-2.1-2.3c0.1-1.5,0.8-2.3,2.2-2.4c1.6,0,2.5,1.1,2.5,3.4c0,2.5-0.9,3.8-2.6,3.8C680-435.1,679.3-435.6,679-436.6z
			 M683.1-439.6c0-1.4-0.7-2.2-1.9-2.2c-1.1,0-1.7,0.7-1.8,1.9c0,1.2,0.6,1.9,1.7,1.9C682.3-438,682.9-438.6,683.1-439.6z"/>
		<path class="st3" d="M694.1-435.2l-2.8-3.7l-1.7,1.7v2.1H689v-7h0.6v4.3l4.4-4.3h0.7l-3.1,3l3.2,4H694.1z"/>
		<path class="st3" d="M698.5-442.3c1.5,0,2.3,1.2,2.3,3.7c0,2.3-0.8,3.5-2.3,3.6c-1.5,0-2.3-1.2-2.4-3.6
			C696.2-441,697-442.2,698.5-442.3z M698.5-435.5c1.2,0,1.8-1,1.8-3.1c0-2.2-0.6-3.2-1.8-3.2c-1.1,0-1.7,1.1-1.7,3.2
			C696.7-436.5,697.3-435.5,698.5-435.5z"/>
	</g>
	<g>
		<path class="st3" d="M768.2-437.5l0.6,0.2c-0.4,1.5-1.4,2.3-3.1,2.3c-2-0.1-3.1-1.3-3.2-3.5c0.1-2.3,1.2-3.6,3.3-3.7
			c1.4,0,2.3,0.7,2.8,2l-0.6,0.1c-0.4-1.1-1.2-1.6-2.3-1.7c-1.6,0.1-2.5,1.2-2.6,3.1c0.1,2,0.9,3,2.6,3.2
			C767-435.5,767.9-436.2,768.2-437.5z"/>
		<path class="st3" d="M772.4-441.3c-0.4,0.5-1,1-2.1,1.5c0-0.2,0-0.3,0-0.5c1.2-0.6,1.9-1.3,2.2-2h0.4v7.1h-0.5V-441.3z"/>
		<path class="st3" d="M778.1-442.3c1.5,0,2.3,1.2,2.3,3.7c0,2.3-0.8,3.5-2.3,3.6c-1.5,0-2.3-1.2-2.4-3.6
			C775.8-441,776.6-442.2,778.1-442.3z M778.1-435.5c1.2,0,1.8-1,1.8-3.1c0-2.2-0.6-3.2-1.8-3.2c-1.1,0-1.7,1.1-1.7,3.2
			C776.3-436.5,776.9-435.5,778.1-435.5z"/>
		<path class="st3" d="M791.7-442.2h0.9v7h-0.5v-6.6H792l-2.6,6.6H789l-2.6-6.6h-0.1v6.6h-0.5v-7h0.9l2.5,6.4h0L791.7-442.2z"/>
		<path class="st3" d="M794.8-436.6l0.5-0.2c0.3,0.9,0.8,1.3,1.6,1.3c1.3,0,2-1.1,2-3.2c-0.4,0.8-1.1,1.2-2.1,1.2
			c-1.3-0.1-2-0.9-2.1-2.3c0.1-1.5,0.8-2.3,2.2-2.4c1.6,0,2.5,1.1,2.5,3.4c0,2.5-0.9,3.8-2.6,3.8
			C795.8-435.1,795.1-435.6,794.8-436.6z M798.8-439.6c0-1.4-0.7-2.2-1.9-2.2c-1.1,0-1.7,0.7-1.8,1.9c0,1.2,0.6,1.9,1.7,1.9
			C798.1-438,798.7-438.6,798.8-439.6z"/>
		<path class="st3" d="M803.6-439.8c1.4,0.1,2.1,0.8,2.2,2.3c0,1.6-0.8,2.4-2.3,2.5c-1.3,0-2.1-0.6-2.4-1.9l0.5-0.1
			c0.2,1.1,0.8,1.6,1.8,1.6c1.2,0,1.8-0.7,1.8-2c0-1.2-0.6-1.9-1.8-1.9c-0.8,0-1.3,0.3-1.7,0.9l-0.4-0.1l0.4-3.7h3.6v0.5h-3.2
			l-0.3,2.6C802.3-439.6,802.9-439.8,803.6-439.8z"/>
		<path class="st3" d="M816.9-442.2l-3,4v3h-0.5v-3l-2.9-4h0.6l2.6,3.6l2.7-3.6H816.9z"/>
		<path class="st3" d="M820.3-441.3c-0.4,0.5-1,1-2.1,1.5c0-0.2,0-0.3,0-0.5c1.2-0.6,1.9-1.3,2.2-2h0.4v7.1h-0.5V-441.3z"/>
		<path class="st3" d="M825.9-442.3c1.5,0,2.3,1.2,2.3,3.7c0,2.3-0.8,3.5-2.3,3.6c-1.5,0-2.3-1.2-2.4-3.6
			C823.6-441,824.4-442.2,825.9-442.3z M825.9-435.5c1.2,0,1.8-1,1.8-3.1c0-2.2-0.6-3.2-1.8-3.2c-1.1,0-1.7,1.1-1.7,3.2
			C824.1-436.5,824.7-435.5,825.9-435.5z"/>
		<path class="st3" d="M832.3-442.3c1.5,0,2.3,1.2,2.3,3.7c0,2.3-0.8,3.5-2.3,3.6c-1.5,0-2.3-1.2-2.4-3.6
			C830-441,830.8-442.2,832.3-442.3z M832.3-435.5c1.2,0,1.8-1,1.8-3.1c0-2.2-0.6-3.2-1.8-3.2c-1.1,0-1.7,1.1-1.7,3.2
			C830.5-436.5,831.1-435.5,832.3-435.5z"/>
		<path class="st3" d="M845.1-435.2l-2.8-3.7l-1.7,1.7v2.1H840v-7h0.6v4.3l4.4-4.3h0.7l-3.1,3l3.2,4H845.1z"/>
		<path class="st3" d="M849.5-442.3c1.5,0,2.3,1.2,2.3,3.7c0,2.3-0.8,3.5-2.3,3.6c-1.5,0-2.3-1.2-2.4-3.6
			C847.2-441,848-442.2,849.5-442.3z M849.5-435.5c1.2,0,1.8-1,1.8-3.1c0-2.2-0.6-3.2-1.8-3.2c-1.1,0-1.7,1.1-1.7,3.2
			C847.7-436.5,848.3-435.5,849.5-435.5z"/>
	</g>
	<g>
		<rect x="1194.9" y="-502.2" class="st4" width="47.9" height="47.9"/>
		<g>
			<path class="st4" d="M1190.2-437.5l0.6,0.2c-0.4,1.5-1.4,2.3-3.1,2.3c-2-0.1-3.1-1.3-3.2-3.5c0.1-2.3,1.2-3.6,3.3-3.7
				c1.4,0,2.3,0.7,2.8,2l-0.6,0.1c-0.4-1.1-1.2-1.6-2.3-1.7c-1.6,0.1-2.5,1.2-2.6,3.1c0.1,2,0.9,3,2.6,3.2
				C1189.1-435.5,1189.9-436.2,1190.2-437.5z"/>
			<path class="st4" d="M1194.9-442.3c1.5,0,2.3,1.2,2.3,3.7c0,2.3-0.8,3.5-2.3,3.6c-1.5,0-2.3-1.2-2.4-3.6
				C1192.6-441,1193.4-442.2,1194.9-442.3z M1194.9-435.5c1.2,0,1.8-1,1.8-3.1c0-2.2-0.6-3.2-1.8-3.2c-1.1,0-1.7,1.1-1.7,3.2
				C1193.1-436.5,1193.7-435.5,1194.9-435.5z"/>
			<path class="st4" d="M1208.5-442.2h0.9v7h-0.5v-6.6h-0.1l-2.6,6.6h-0.5l-2.6-6.6h-0.1v6.6h-0.5v-7h0.9l2.5,6.4h0L1208.5-442.2z"
				/>
			<path class="st4" d="M1213.8-442.3c1.5,0,2.3,1.2,2.3,3.7c0,2.3-0.8,3.5-2.3,3.6c-1.5,0-2.3-1.2-2.4-3.6
				C1211.5-441,1212.3-442.2,1213.8-442.3z M1213.8-435.5c1.2,0,1.8-1,1.8-3.1c0-2.2-0.6-3.2-1.8-3.2c-1.1,0-1.7,1.1-1.7,3.2
				C1212-436.5,1212.6-435.5,1213.8-435.5z"/>
			<path class="st4" d="M1227.3-442.2l-3,4v3h-0.5v-3l-2.9-4h0.6l2.6,3.6l2.7-3.6H1227.3z"/>
			<path class="st4" d="M1231-442.3c1.5,0,2.3,1.2,2.3,3.7c0,2.3-0.8,3.5-2.3,3.6c-1.5,0-2.3-1.2-2.4-3.6
				C1228.8-441,1229.5-442.2,1231-442.3z M1231-435.5c1.2,0,1.8-1,1.8-3.1c0-2.2-0.6-3.2-1.8-3.2c-1.1,0-1.7,1.1-1.7,3.2
				C1229.3-436.5,1229.9-435.5,1231-435.5z"/>
			<path class="st4" d="M1243.8-435.2l-2.8-3.7l-1.7,1.7v2.1h-0.6v-7h0.6v4.3l4.4-4.3h0.7l-3.1,3l3.2,4H1243.8z"/>
			<path class="st4" d="M1248.2-442.3c1.5,0,2.3,1.2,2.3,3.7c0,2.3-0.8,3.5-2.3,3.6c-1.5,0-2.3-1.2-2.4-3.6
				C1245.9-441,1246.7-442.2,1248.2-442.3z M1248.2-435.5c1.2,0,1.8-1,1.8-3.1c0-2.2-0.6-3.2-1.8-3.2c-1.1,0-1.7,1.1-1.7,3.2
				C1246.5-436.5,1247-435.5,1248.2-435.5z"/>
		</g>
	</g>
	<g>
		<path class="st3" d="M472.9-438.5l0.6,0.2c-0.4,1.5-1.4,2.3-3.1,2.3c-2-0.1-3.1-1.3-3.2-3.5c0.1-2.3,1.2-3.6,3.3-3.7
			c1.4,0,2.3,0.7,2.8,2l-0.6,0.1c-0.4-1.1-1.2-1.6-2.3-1.7c-1.6,0.1-2.5,1.2-2.6,3.1c0.1,2,0.9,3,2.6,3.2
			C471.8-436.5,472.6-437.2,472.9-438.5z"/>
		<path class="st3" d="M476.7-439.8c-0.7-0.3-1.1-0.9-1.1-1.6c0.1-1.2,0.8-1.8,2.1-1.9c1.3,0.1,2,0.7,2.1,1.9c0,0.8-0.4,1.3-1.1,1.6
			c0.8,0.3,1.3,0.9,1.4,1.9c0,1.2-0.8,1.8-2.4,1.9c-1.5,0-2.3-0.7-2.4-1.9C475.3-439,475.8-439.6,476.7-439.8z M477.6-439.6
			c-1.1,0-1.7,0.6-1.8,1.6c0,1,0.7,1.5,1.8,1.5c1.2,0,1.8-0.5,1.8-1.4C479.4-439,478.8-439.6,477.6-439.6z M477.6-442.9
			c-1,0-1.5,0.5-1.5,1.4c0,0.9,0.5,1.4,1.5,1.4c1,0,1.5-0.5,1.5-1.4C479.1-442.3,478.6-442.8,477.6-442.9z"/>
		<path class="st3" d="M483.1-439.8c-0.7-0.3-1.1-0.9-1.1-1.6c0.1-1.2,0.8-1.8,2.1-1.9c1.3,0.1,2,0.7,2.1,1.9c0,0.8-0.4,1.3-1.1,1.6
			c0.8,0.3,1.3,0.9,1.4,1.9c0,1.2-0.8,1.8-2.4,1.9c-1.5,0-2.3-0.7-2.4-1.9C481.8-439,482.3-439.6,483.1-439.8z M484.1-439.6
			c-1.1,0-1.7,0.6-1.8,1.6c0,1,0.7,1.5,1.8,1.5c1.2,0,1.8-0.5,1.8-1.4C485.9-439,485.2-439.6,484.1-439.6z M484.1-442.9
			c-1,0-1.5,0.5-1.5,1.4c0,0.9,0.5,1.4,1.5,1.4c1,0,1.5-0.5,1.5-1.4C485.6-442.3,485.1-442.8,484.1-442.9z"/>
		<path class="st3" d="M497.8-443.2h0.9v7h-0.5v-6.6h-0.1l-2.6,6.6H495l-2.6-6.6h-0.1v6.6h-0.5v-7h0.9l2.5,6.4h0L497.8-443.2z"/>
		<path class="st3" d="M503.2-440.8c1.4,0.1,2.1,0.8,2.2,2.3c0,1.6-0.8,2.4-2.3,2.5c-1.3,0-2.1-0.6-2.4-1.9l0.5-0.1
			c0.2,1.1,0.8,1.6,1.8,1.6c1.2,0,1.8-0.7,1.8-2c0-1.2-0.6-1.9-1.8-1.9c-0.8,0-1.3,0.3-1.7,0.9l-0.4-0.1l0.4-3.7h3.6v0.5h-3.2
			l-0.3,2.6C501.9-440.6,502.5-440.8,503.2-440.8z"/>
		<path class="st3" d="M511.6-441.7l-0.5,0.2c-0.2-0.9-0.7-1.3-1.5-1.3c-1.3,0-2,1.1-2,3.3c0.4-0.8,1.1-1.2,2.1-1.2
			c1.3,0.1,2,0.9,2.1,2.3c-0.1,1.5-0.8,2.3-2.2,2.4c-1.7,0-2.5-1.1-2.5-3.3c0-2.6,0.8-3.9,2.5-3.9
			C510.6-443.2,511.3-442.7,511.6-441.7z M507.6-438.6c0,1.4,0.7,2.1,1.9,2.1c1.1,0,1.7-0.7,1.8-1.9c0-1.2-0.6-1.9-1.7-1.9
			C508.3-440.2,507.7-439.7,507.6-438.6z"/>
		<path class="st3" d="M523-443.2l-3,4v3h-0.5v-3l-2.9-4h0.6l2.6,3.6l2.7-3.6H523z"/>
		<path class="st3" d="M528.9-438.1c-0.1,1.3-0.8,2-2.3,2c-1.3,0-2.1-0.6-2.4-1.8l0.5-0.1c0.2,1,0.8,1.5,1.8,1.5
			c1.2,0,1.8-0.6,1.8-1.7c0-0.9-0.6-1.4-1.9-1.4h-0.6v-0.4h0.4c1.2,0,1.8-0.5,1.8-1.4c0-0.9-0.5-1.4-1.5-1.4c-1,0-1.5,0.5-1.7,1.5
			l-0.5-0.2c0.3-1.2,1-1.8,2.2-1.8c1.3,0,2,0.6,2.1,1.8c0,0.8-0.5,1.3-1.3,1.6v0C528.4-439.7,528.9-439.1,528.9-438.1z"/>
		<path class="st3" d="M532.6-442.3c-0.4,0.5-1,1-2.1,1.5c0-0.2,0-0.3,0-0.5c1.2-0.6,1.9-1.3,2.2-2h0.4v7.1h-0.5V-442.3z"/>
		<path class="st3" d="M544.7-436.2l-2.8-3.7l-1.7,1.7v2.1h-0.6v-7h0.6v4.3l4.4-4.3h0.7l-3.1,3l3.2,4H544.7z"/>
		<path class="st3" d="M549-443.3c1.5,0,2.3,1.2,2.3,3.7c0,2.3-0.8,3.5-2.3,3.6c-1.5,0-2.3-1.2-2.4-3.6
			C546.8-442,547.5-443.2,549-443.3z M549-436.5c1.2,0,1.8-1,1.8-3.1c0-2.2-0.6-3.2-1.8-3.2c-1.1,0-1.7,1.1-1.7,3.2
			C547.3-437.5,547.9-436.5,549-436.5z"/>
	</g>
	<g>
		<path d="M787.1-404.6v-6.6h2.5c0.4,0,0.8,0,1,0.1c0.3,0.1,0.6,0.2,0.8,0.3c0.2,0.2,0.4,0.4,0.5,0.6c0.1,0.3,0.2,0.6,0.2,0.9
			c0,0.6-0.2,1-0.5,1.4c-0.4,0.4-1,0.6-1.9,0.6H788v2.7H787.1z M788-408.1h1.7c0.6,0,1-0.1,1.2-0.3c0.2-0.2,0.4-0.5,0.4-0.9
			c0-0.3-0.1-0.5-0.2-0.7c-0.1-0.2-0.3-0.3-0.5-0.4c-0.1,0-0.4-0.1-0.8-0.1H788V-408.1z"/>
		<path d="M796.2-405.2c-0.3,0.3-0.6,0.4-0.9,0.5c-0.3,0.1-0.6,0.2-0.9,0.2c-0.5,0-0.9-0.1-1.2-0.4c-0.3-0.3-0.4-0.6-0.4-1
			c0-0.2,0.1-0.4,0.2-0.6c0.1-0.2,0.2-0.3,0.4-0.5c0.2-0.1,0.4-0.2,0.6-0.3c0.2,0,0.4-0.1,0.7-0.1c0.7-0.1,1.1-0.2,1.4-0.3
			c0-0.1,0-0.2,0-0.2c0-0.3-0.1-0.6-0.2-0.7c-0.2-0.2-0.5-0.3-0.9-0.3c-0.4,0-0.7,0.1-0.8,0.2c-0.2,0.1-0.3,0.4-0.4,0.7L793-408
			c0.1-0.3,0.2-0.6,0.4-0.8c0.2-0.2,0.4-0.4,0.7-0.5c0.3-0.1,0.7-0.2,1.1-0.2c0.4,0,0.7,0,1,0.1c0.3,0.1,0.4,0.2,0.6,0.4
			c0.1,0.1,0.2,0.3,0.3,0.5c0,0.1,0,0.4,0,0.7v1.1c0,0.7,0,1.2,0.1,1.4c0,0.2,0.1,0.4,0.2,0.6h-0.8
			C796.3-404.8,796.3-405,796.2-405.2z M796.2-407c-0.3,0.1-0.7,0.2-1.3,0.3c-0.3,0-0.6,0.1-0.7,0.2c-0.1,0.1-0.2,0.1-0.3,0.3
			c-0.1,0.1-0.1,0.2-0.1,0.4c0,0.2,0.1,0.4,0.2,0.5c0.2,0.1,0.4,0.2,0.7,0.2c0.3,0,0.6-0.1,0.8-0.2c0.2-0.1,0.4-0.3,0.5-0.6
			c0.1-0.2,0.1-0.5,0.1-0.8V-407z"/>
		<path d="M798.2-404.6v-4.8h0.7v0.7c0.3-0.5,0.9-0.8,1.5-0.8c0.3,0,0.5,0.1,0.8,0.2c0.2,0.1,0.4,0.2,0.5,0.4
			c0.1,0.2,0.2,0.4,0.3,0.6c0,0.1,0,0.4,0,0.8v2.9h-0.8v-2.9c0-0.3,0-0.6-0.1-0.7c-0.1-0.2-0.2-0.3-0.3-0.4
			c-0.2-0.1-0.3-0.1-0.6-0.1c-0.3,0-0.6,0.1-0.9,0.3c-0.2,0.2-0.4,0.6-0.4,1.2v2.6H798.2z"/>
		<path d="M805.1-405.3l0.1,0.7c-0.2,0-0.4,0.1-0.6,0.1c-0.3,0-0.5,0-0.7-0.1s-0.3-0.2-0.3-0.4c-0.1-0.2-0.1-0.5-0.1-1v-2.7h-0.6
			v-0.6h0.6v-1.2l0.8-0.5v1.7h0.8v0.6h-0.8v2.8c0,0.2,0,0.4,0,0.4c0,0.1,0.1,0.1,0.1,0.2c0.1,0,0.2,0.1,0.3,0.1
			C804.8-405.3,805-405.3,805.1-405.3z"/>
		<path d="M805.6-407c0-0.9,0.2-1.5,0.7-2c0.4-0.4,0.9-0.5,1.5-0.5c0.7,0,1.2,0.2,1.6,0.6c0.4,0.4,0.6,1,0.6,1.8
			c0,0.6-0.1,1.1-0.3,1.4c-0.2,0.4-0.5,0.6-0.8,0.8c-0.4,0.2-0.7,0.3-1.1,0.3c-0.7,0-1.2-0.2-1.6-0.6
			C805.8-405.6,805.6-406.2,805.6-407z M806.4-407c0,0.6,0.1,1.1,0.4,1.4c0.3,0.3,0.6,0.5,1,0.5c0.4,0,0.7-0.2,1-0.5
			c0.3-0.3,0.4-0.8,0.4-1.4c0-0.6-0.1-1-0.4-1.3c-0.3-0.3-0.6-0.5-1-0.5c-0.4,0-0.7,0.2-1,0.5C806.6-408.1,806.4-407.6,806.4-407z"
			/>
		<path d="M811-404.6v-4.8h0.7v0.7c0.3-0.5,0.9-0.8,1.5-0.8c0.3,0,0.5,0.1,0.8,0.2c0.2,0.1,0.4,0.2,0.5,0.4c0.1,0.2,0.2,0.4,0.3,0.6
			c0,0.1,0,0.4,0,0.8v2.9h-0.8v-2.9c0-0.3,0-0.6-0.1-0.7c-0.1-0.2-0.2-0.3-0.3-0.4c-0.2-0.1-0.3-0.1-0.6-0.1c-0.3,0-0.6,0.1-0.9,0.3
			c-0.2,0.2-0.4,0.6-0.4,1.2v2.6H811z"/>
		<path d="M819.4-406.1l0.8,0.1c-0.1,0.5-0.4,0.9-0.7,1.1c-0.4,0.3-0.8,0.4-1.4,0.4c-0.7,0-1.2-0.2-1.7-0.6c-0.4-0.4-0.6-1-0.6-1.8
			c0-0.8,0.2-1.4,0.6-1.9c0.4-0.4,0.9-0.7,1.6-0.7c0.6,0,1.2,0.2,1.6,0.6c0.4,0.4,0.6,1,0.6,1.8c0,0,0,0.1,0,0.2h-3.6
			c0,0.5,0.2,0.9,0.4,1.2c0.3,0.3,0.6,0.4,1,0.4c0.3,0,0.5-0.1,0.8-0.2C819.1-405.6,819.2-405.8,819.4-406.1z M816.7-407.4h2.7
			c0-0.4-0.1-0.7-0.3-0.9c-0.3-0.3-0.6-0.5-1-0.5c-0.4,0-0.7,0.1-0.9,0.4C816.9-408.2,816.7-407.9,816.7-407.4z"/>
		<path d="M825.7-409.4c0,0.2-0.2,0.5-0.5,0.5c-0.3,0-0.5-0.2-0.5-0.5c0-0.2,0.1-0.5,0.5-0.5C825.4-409.9,825.7-409.7,825.7-409.4z
			 M825.7-407c0,0.2-0.2,0.5-0.5,0.5c-0.3,0-0.5-0.3-0.5-0.5c0-0.2,0.2-0.5,0.5-0.5C825.4-407.6,825.7-407.4,825.7-407z"/>
		<path d="M834.4-405.4v0.8H830c0-0.2,0-0.4,0.1-0.6c0.1-0.3,0.3-0.6,0.5-0.9c0.2-0.3,0.6-0.6,1.1-1c0.7-0.6,1.2-1,1.4-1.4
			c0.3-0.3,0.4-0.7,0.4-1c0-0.3-0.1-0.6-0.3-0.8c-0.2-0.2-0.5-0.3-0.9-0.3c-0.4,0-0.7,0.1-0.9,0.3c-0.2,0.2-0.4,0.6-0.4,1l-0.8-0.1
			c0.1-0.6,0.3-1.1,0.6-1.4c0.4-0.3,0.9-0.5,1.5-0.5c0.6,0,1.1,0.2,1.5,0.5c0.4,0.3,0.6,0.8,0.6,1.3c0,0.3-0.1,0.5-0.2,0.8
			c-0.1,0.3-0.3,0.5-0.5,0.8c-0.2,0.3-0.7,0.7-1.2,1.2c-0.5,0.4-0.8,0.7-0.9,0.8c-0.1,0.1-0.3,0.3-0.3,0.4H834.4z"/>
		<path d="M835.3-406.3l0.8-0.1c0.1,0.5,0.3,0.8,0.5,1c0.2,0.2,0.5,0.3,0.8,0.3c0.4,0,0.7-0.1,1-0.4c0.3-0.3,0.4-0.6,0.4-1
			c0-0.4-0.1-0.7-0.4-0.9c-0.2-0.2-0.5-0.4-0.9-0.4c-0.2,0-0.3,0-0.6,0.1l0.1-0.7c0.1,0,0.1,0,0.1,0c0.3,0,0.7-0.1,0.9-0.3
			c0.3-0.2,0.4-0.5,0.4-0.8c0-0.3-0.1-0.5-0.3-0.7c-0.2-0.2-0.5-0.3-0.8-0.3c-0.3,0-0.6,0.1-0.8,0.3c-0.2,0.2-0.3,0.5-0.4,0.9
			l-0.8-0.1c0.1-0.5,0.3-1,0.7-1.3c0.3-0.3,0.8-0.4,1.3-0.4c0.4,0,0.7,0.1,1,0.2c0.3,0.2,0.5,0.4,0.7,0.6c0.2,0.3,0.2,0.5,0.2,0.8
			c0,0.3-0.1,0.5-0.2,0.8s-0.4,0.4-0.7,0.6c0.4,0.1,0.7,0.3,0.9,0.6c0.2,0.3,0.3,0.6,0.3,1.1c0,0.6-0.2,1.1-0.6,1.5
			c-0.4,0.4-0.9,0.6-1.6,0.6c-0.6,0-1.1-0.2-1.4-0.5C835.5-405.4,835.3-405.8,835.3-406.3z"/>
		<path d="M842.9-404.6v-1.6h-2.8v-0.7l3-4.3h0.7v4.3h0.9v0.7h-0.9v1.6H842.9z M842.9-406.9v-3l-2.1,3H842.9z"/>
		<path d="M845.5-410.3v-0.8h4.3v0.6c-0.4,0.4-0.8,1-1.2,1.8c-0.4,0.7-0.7,1.5-1,2.3c-0.2,0.5-0.3,1.2-0.3,1.8h-0.8
			c0-0.5,0.1-1.1,0.3-1.9c0.2-0.7,0.5-1.4,0.8-2.1c0.4-0.7,0.7-1.3,1.2-1.7H845.5z"/>
		<path d="M858.1-406.9l0.9,0.2c-0.2,0.7-0.5,1.3-1,1.6c-0.5,0.4-1.1,0.6-1.7,0.6c-0.7,0-1.3-0.1-1.7-0.4c-0.4-0.3-0.8-0.7-1-1.3
			c-0.2-0.5-0.3-1.1-0.3-1.8c0-0.7,0.1-1.3,0.4-1.8c0.3-0.5,0.6-0.9,1.1-1.2c0.5-0.3,1-0.4,1.6-0.4c0.7,0,1.2,0.2,1.7,0.5
			c0.4,0.3,0.8,0.8,0.9,1.4l-0.9,0.2c-0.2-0.5-0.4-0.8-0.7-1c-0.3-0.2-0.7-0.3-1.1-0.3c-0.5,0-0.9,0.1-1.3,0.4
			c-0.3,0.2-0.6,0.6-0.7,1c-0.1,0.4-0.2,0.8-0.2,1.3c0,0.6,0.1,1,0.2,1.5c0.2,0.4,0.4,0.7,0.8,0.9c0.3,0.2,0.7,0.3,1.1,0.3
			c0.5,0,0.9-0.1,1.2-0.4C857.8-405.9,858-406.4,858.1-406.9z"/>
	</g>
	<g>
		<rect x="1172.1" y="-418.2" class="st4" width="20.2" height="20.1"/>
		<g>
			<path class="st4" d="M1198.9-404.6v-6.6h2.5c0.4,0,0.8,0,1,0.1c0.3,0.1,0.6,0.2,0.8,0.3c0.2,0.2,0.4,0.4,0.5,0.6
				c0.1,0.3,0.2,0.6,0.2,0.9c0,0.6-0.2,1-0.5,1.4c-0.4,0.4-1,0.6-1.9,0.6h-1.7v2.7H1198.9z M1199.8-408.1h1.7c0.6,0,1-0.1,1.2-0.3
				c0.2-0.2,0.4-0.5,0.4-0.9c0-0.3-0.1-0.5-0.2-0.7c-0.1-0.2-0.3-0.3-0.5-0.4c-0.1,0-0.4-0.1-0.8-0.1h-1.7V-408.1z"/>
			<path class="st4" d="M1208-405.2c-0.3,0.3-0.6,0.4-0.9,0.5c-0.3,0.1-0.6,0.2-0.9,0.2c-0.5,0-0.9-0.1-1.2-0.4
				c-0.3-0.3-0.4-0.6-0.4-1c0-0.2,0.1-0.4,0.2-0.6c0.1-0.2,0.2-0.3,0.4-0.5c0.2-0.1,0.4-0.2,0.6-0.3c0.2,0,0.4-0.1,0.7-0.1
				c0.7-0.1,1.1-0.2,1.4-0.3c0-0.1,0-0.2,0-0.2c0-0.3-0.1-0.6-0.2-0.7c-0.2-0.2-0.5-0.3-0.9-0.3c-0.4,0-0.7,0.1-0.8,0.2
				c-0.2,0.1-0.3,0.4-0.4,0.7l-0.8-0.1c0.1-0.3,0.2-0.6,0.4-0.8c0.2-0.2,0.4-0.4,0.7-0.5c0.3-0.1,0.7-0.2,1.1-0.2c0.4,0,0.7,0,1,0.1
				s0.4,0.2,0.6,0.4c0.1,0.1,0.2,0.3,0.3,0.5c0,0.1,0,0.4,0,0.7v1.1c0,0.7,0,1.2,0.1,1.4c0,0.2,0.1,0.4,0.2,0.6h-0.8
				C1208.1-404.8,1208.1-405,1208-405.2z M1208-407c-0.3,0.1-0.7,0.2-1.3,0.3c-0.3,0-0.6,0.1-0.7,0.2c-0.1,0.1-0.2,0.1-0.3,0.3
				c-0.1,0.1-0.1,0.2-0.1,0.4c0,0.2,0.1,0.4,0.2,0.5c0.2,0.1,0.4,0.2,0.7,0.2c0.3,0,0.6-0.1,0.8-0.2c0.2-0.1,0.4-0.3,0.5-0.6
				c0.1-0.2,0.1-0.5,0.1-0.8V-407z"/>
			<path class="st4" d="M1210-404.6v-4.8h0.7v0.7c0.3-0.5,0.9-0.8,1.5-0.8c0.3,0,0.5,0.1,0.8,0.2c0.2,0.1,0.4,0.2,0.5,0.4
				c0.1,0.2,0.2,0.4,0.3,0.6c0,0.1,0,0.4,0,0.8v2.9h-0.8v-2.9c0-0.3,0-0.6-0.1-0.7c-0.1-0.2-0.2-0.3-0.3-0.4
				c-0.2-0.1-0.3-0.1-0.6-0.1c-0.3,0-0.6,0.1-0.9,0.3c-0.2,0.2-0.4,0.6-0.4,1.2v2.6H1210z"/>
			<path class="st4" d="M1216.9-405.3l0.1,0.7c-0.2,0-0.4,0.1-0.6,0.1c-0.3,0-0.5,0-0.7-0.1c-0.2-0.1-0.3-0.2-0.3-0.4
				c-0.1-0.2-0.1-0.5-0.1-1v-2.7h-0.6v-0.6h0.6v-1.2l0.8-0.5v1.7h0.8v0.6h-0.8v2.8c0,0.2,0,0.4,0,0.4c0,0.1,0.1,0.1,0.1,0.2
				c0.1,0,0.2,0.1,0.3,0.1C1216.6-405.3,1216.8-405.3,1216.9-405.3z"/>
			<path class="st4" d="M1217.4-407c0-0.9,0.2-1.5,0.7-2c0.4-0.4,0.9-0.5,1.5-0.5c0.7,0,1.2,0.2,1.6,0.6c0.4,0.4,0.6,1,0.6,1.8
				c0,0.6-0.1,1.1-0.3,1.4c-0.2,0.4-0.5,0.6-0.8,0.8c-0.4,0.2-0.7,0.3-1.1,0.3c-0.7,0-1.2-0.2-1.6-0.6
				C1217.6-405.6,1217.4-406.2,1217.4-407z M1218.2-407c0,0.6,0.1,1.1,0.4,1.4c0.3,0.3,0.6,0.5,1,0.5c0.4,0,0.7-0.2,1-0.5
				c0.3-0.3,0.4-0.8,0.4-1.4c0-0.6-0.1-1-0.4-1.3c-0.3-0.3-0.6-0.5-1-0.5c-0.4,0-0.7,0.2-1,0.5
				C1218.4-408.1,1218.2-407.6,1218.2-407z"/>
			<path class="st4" d="M1222.8-404.6v-4.8h0.7v0.7c0.3-0.5,0.9-0.8,1.5-0.8c0.3,0,0.5,0.1,0.8,0.2c0.2,0.1,0.4,0.2,0.5,0.4
				c0.1,0.2,0.2,0.4,0.3,0.6c0,0.1,0,0.4,0,0.8v2.9h-0.8v-2.9c0-0.3,0-0.6-0.1-0.7c-0.1-0.2-0.2-0.3-0.3-0.4
				c-0.2-0.1-0.3-0.1-0.6-0.1c-0.3,0-0.6,0.1-0.9,0.3c-0.2,0.2-0.4,0.6-0.4,1.2v2.6H1222.8z"/>
			<path class="st4" d="M1231.2-406.1l0.8,0.1c-0.1,0.5-0.4,0.9-0.7,1.1c-0.4,0.3-0.8,0.4-1.4,0.4c-0.7,0-1.2-0.2-1.7-0.6
				c-0.4-0.4-0.6-1-0.6-1.8c0-0.8,0.2-1.4,0.6-1.9c0.4-0.4,0.9-0.7,1.6-0.7c0.6,0,1.2,0.2,1.6,0.6c0.4,0.4,0.6,1,0.6,1.8
				c0,0,0,0.1,0,0.2h-3.6c0,0.5,0.2,0.9,0.4,1.2c0.3,0.3,0.6,0.4,1,0.4c0.3,0,0.5-0.1,0.8-0.2C1230.9-405.6,1231-405.8,1231.2-406.1
				z M1228.5-407.4h2.7c0-0.4-0.1-0.7-0.3-0.9c-0.3-0.3-0.6-0.5-1-0.5c-0.4,0-0.7,0.1-0.9,0.4
				C1228.7-408.2,1228.5-407.9,1228.5-407.4z"/>
			<path class="st4" d="M1237.5-409.4c0,0.2-0.2,0.5-0.5,0.5c-0.3,0-0.5-0.2-0.5-0.5c0-0.2,0.1-0.5,0.5-0.5
				C1237.2-409.9,1237.5-409.7,1237.5-409.4z M1237.5-407c0,0.2-0.2,0.5-0.5,0.5c-0.3,0-0.5-0.3-0.5-0.5c0-0.2,0.2-0.5,0.5-0.5
				C1237.2-407.6,1237.5-407.4,1237.5-407z"/>
			<path class="st4" d="M1243.1-404.6l-1.5-4.8h0.8l0.8,2.7l0.3,1c0-0.1,0.1-0.4,0.2-1l0.8-2.8h0.8l0.7,2.8l0.2,0.9l0.3-0.9l0.8-2.8
				h0.8l-1.5,4.8h-0.8l-0.8-2.8l-0.2-0.8l-1,3.7H1243.1z"/>
			<path class="st4" d="M1248.8-404.6v-6.6h0.8v2.4c0.4-0.4,0.9-0.7,1.4-0.7c0.4,0,0.7,0.1,0.9,0.2c0.3,0.1,0.4,0.3,0.6,0.6
				c0.1,0.2,0.2,0.6,0.2,1.1v3h-0.8v-3c0-0.4-0.1-0.7-0.3-0.9s-0.4-0.3-0.7-0.3c-0.2,0-0.5,0.1-0.7,0.2c-0.2,0.1-0.4,0.3-0.5,0.5
				c-0.1,0.2-0.1,0.5-0.1,0.9v2.6H1248.8z"/>
			<path class="st4" d="M1253.9-410.2v-0.9h0.8v0.9H1253.9z M1253.9-404.6v-4.8h0.8v4.8H1253.9z"/>
			<path class="st4" d="M1257.7-405.3l0.1,0.7c-0.2,0-0.4,0.1-0.6,0.1c-0.3,0-0.5,0-0.7-0.1c-0.2-0.1-0.3-0.2-0.3-0.4
				c-0.1-0.2-0.1-0.5-0.1-1v-2.7h-0.6v-0.6h0.6v-1.2l0.8-0.5v1.7h0.8v0.6h-0.8v2.8c0,0.2,0,0.4,0,0.4c0,0.1,0.1,0.1,0.1,0.2
				c0.1,0,0.2,0.1,0.3,0.1C1257.4-405.3,1257.6-405.3,1257.7-405.3z"/>
			<path class="st4" d="M1261.7-406.1l0.8,0.1c-0.1,0.5-0.4,0.9-0.7,1.1c-0.4,0.3-0.8,0.4-1.4,0.4c-0.7,0-1.2-0.2-1.7-0.6
				c-0.4-0.4-0.6-1-0.6-1.8c0-0.8,0.2-1.4,0.6-1.9c0.4-0.4,0.9-0.7,1.6-0.7c0.6,0,1.2,0.2,1.6,0.6c0.4,0.4,0.6,1,0.6,1.8
				c0,0,0,0.1,0,0.2h-3.6c0,0.5,0.2,0.9,0.4,1.2c0.3,0.3,0.6,0.4,1,0.4c0.3,0,0.5-0.1,0.8-0.2
				C1261.5-405.6,1261.6-405.8,1261.7-406.1z M1259.1-407.4h2.7c0-0.4-0.1-0.7-0.3-0.9c-0.3-0.3-0.6-0.5-1-0.5
				c-0.4,0-0.7,0.1-0.9,0.4C1259.3-408.2,1259.1-407.9,1259.1-407.4z"/>
		</g>
	</g>
	<rect x="607.8" y="-418.2" class="st1" width="20.2" height="20.1"/>
	<g>
		<path d="M634.6-404.6v-6.6h2.5c0.4,0,0.8,0,1,0.1c0.3,0.1,0.6,0.2,0.8,0.3c0.2,0.2,0.4,0.4,0.5,0.6c0.1,0.3,0.2,0.6,0.2,0.9
			c0,0.6-0.2,1-0.5,1.4c-0.4,0.4-1,0.6-1.9,0.6h-1.7v2.7H634.6z M635.5-408.1h1.7c0.6,0,1-0.1,1.2-0.3c0.2-0.2,0.4-0.5,0.4-0.9
			c0-0.3-0.1-0.5-0.2-0.7c-0.1-0.2-0.3-0.3-0.5-0.4c-0.1,0-0.4-0.1-0.8-0.1h-1.7V-408.1z"/>
		<path d="M643.7-405.2c-0.3,0.3-0.6,0.4-0.9,0.5c-0.3,0.1-0.6,0.2-0.9,0.2c-0.5,0-0.9-0.1-1.2-0.4c-0.3-0.3-0.4-0.6-0.4-1
			c0-0.2,0.1-0.4,0.2-0.6c0.1-0.2,0.2-0.3,0.4-0.5c0.2-0.1,0.4-0.2,0.6-0.3c0.2,0,0.4-0.1,0.7-0.1c0.7-0.1,1.1-0.2,1.4-0.3
			c0-0.1,0-0.2,0-0.2c0-0.3-0.1-0.6-0.2-0.7c-0.2-0.2-0.5-0.3-0.9-0.3c-0.4,0-0.7,0.1-0.8,0.2c-0.2,0.1-0.3,0.4-0.4,0.7l-0.8-0.1
			c0.1-0.3,0.2-0.6,0.4-0.8c0.2-0.2,0.4-0.4,0.7-0.5c0.3-0.1,0.7-0.2,1.1-0.2c0.4,0,0.7,0,1,0.1s0.4,0.2,0.6,0.4
			c0.1,0.1,0.2,0.3,0.3,0.5c0,0.1,0,0.4,0,0.7v1.1c0,0.7,0,1.2,0.1,1.4c0,0.2,0.1,0.4,0.2,0.6h-0.8
			C643.8-404.8,643.7-405,643.7-405.2z M643.6-407c-0.3,0.1-0.7,0.2-1.3,0.3c-0.3,0-0.6,0.1-0.7,0.2c-0.1,0.1-0.2,0.1-0.3,0.3
			c-0.1,0.1-0.1,0.2-0.1,0.4c0,0.2,0.1,0.4,0.2,0.5c0.2,0.1,0.4,0.2,0.7,0.2c0.3,0,0.6-0.1,0.8-0.2c0.2-0.1,0.4-0.3,0.5-0.6
			c0.1-0.2,0.1-0.5,0.1-0.8V-407z"/>
		<path d="M645.7-404.6v-4.8h0.7v0.7c0.3-0.5,0.9-0.8,1.5-0.8c0.3,0,0.5,0.1,0.8,0.2c0.2,0.1,0.4,0.2,0.5,0.4
			c0.1,0.2,0.2,0.4,0.3,0.6c0,0.1,0,0.4,0,0.8v2.9h-0.8v-2.9c0-0.3,0-0.6-0.1-0.7c-0.1-0.2-0.2-0.3-0.3-0.4
			c-0.2-0.1-0.3-0.1-0.6-0.1c-0.3,0-0.6,0.1-0.9,0.3c-0.2,0.2-0.4,0.6-0.4,1.2v2.6H645.7z"/>
		<path d="M652.6-405.3l0.1,0.7c-0.2,0-0.4,0.1-0.6,0.1c-0.3,0-0.5,0-0.7-0.1c-0.2-0.1-0.3-0.2-0.3-0.4c-0.1-0.2-0.1-0.5-0.1-1v-2.7
			h-0.6v-0.6h0.6v-1.2l0.8-0.5v1.7h0.8v0.6h-0.8v2.8c0,0.2,0,0.4,0,0.4c0,0.1,0.1,0.1,0.1,0.2c0.1,0,0.2,0.1,0.3,0.1
			C652.3-405.3,652.4-405.3,652.6-405.3z"/>
		<path d="M653.1-407c0-0.9,0.2-1.5,0.7-2c0.4-0.4,0.9-0.5,1.5-0.5c0.7,0,1.2,0.2,1.6,0.6c0.4,0.4,0.6,1,0.6,1.8
			c0,0.6-0.1,1.1-0.3,1.4c-0.2,0.4-0.5,0.6-0.8,0.8c-0.4,0.2-0.7,0.3-1.1,0.3c-0.7,0-1.2-0.2-1.6-0.6
			C653.3-405.6,653.1-406.2,653.1-407z M653.9-407c0,0.6,0.1,1.1,0.4,1.4c0.3,0.3,0.6,0.5,1,0.5c0.4,0,0.7-0.2,1-0.5
			c0.3-0.3,0.4-0.8,0.4-1.4c0-0.6-0.1-1-0.4-1.3c-0.3-0.3-0.6-0.5-1-0.5c-0.4,0-0.7,0.2-1,0.5C654-408.1,653.9-407.6,653.9-407z"/>
		<path d="M658.5-404.6v-4.8h0.7v0.7c0.3-0.5,0.9-0.8,1.5-0.8c0.3,0,0.5,0.1,0.8,0.2c0.2,0.1,0.4,0.2,0.5,0.4
			c0.1,0.2,0.2,0.4,0.3,0.6c0,0.1,0,0.4,0,0.8v2.9h-0.8v-2.9c0-0.3,0-0.6-0.1-0.7c-0.1-0.2-0.2-0.3-0.3-0.4
			c-0.2-0.1-0.3-0.1-0.6-0.1c-0.3,0-0.6,0.1-0.9,0.3c-0.2,0.2-0.4,0.6-0.4,1.2v2.6H658.5z"/>
		<path d="M666.8-406.1l0.8,0.1c-0.1,0.5-0.4,0.9-0.7,1.1c-0.4,0.3-0.8,0.4-1.4,0.4c-0.7,0-1.2-0.2-1.7-0.6c-0.4-0.4-0.6-1-0.6-1.8
			c0-0.8,0.2-1.4,0.6-1.9c0.4-0.4,0.9-0.7,1.6-0.7c0.6,0,1.2,0.2,1.6,0.6c0.4,0.4,0.6,1,0.6,1.8c0,0,0,0.1,0,0.2h-3.6
			c0,0.5,0.2,0.9,0.4,1.2c0.3,0.3,0.6,0.4,1,0.4c0.3,0,0.5-0.1,0.8-0.2C666.5-405.6,666.7-405.8,666.8-406.1z M664.2-407.4h2.7
			c0-0.4-0.1-0.7-0.3-0.9c-0.3-0.3-0.6-0.5-1-0.5c-0.4,0-0.7,0.1-0.9,0.4C664.3-408.2,664.2-407.9,664.2-407.4z"/>
		<path d="M673.2-409.4c0,0.2-0.2,0.5-0.5,0.5c-0.3,0-0.5-0.2-0.5-0.5c0-0.2,0.1-0.5,0.5-0.5C672.8-409.9,673.2-409.7,673.2-409.4z
			 M673.2-407c0,0.2-0.2,0.5-0.5,0.5c-0.3,0-0.5-0.3-0.5-0.5c0-0.2,0.2-0.5,0.5-0.5C672.8-407.6,673.2-407.4,673.2-407z"/>
		<path d="M681.9-405.4v0.8h-4.3c0-0.2,0-0.4,0.1-0.6c0.1-0.3,0.3-0.6,0.5-0.9c0.2-0.3,0.6-0.6,1.1-1c0.7-0.6,1.2-1,1.4-1.4
			c0.3-0.3,0.4-0.7,0.4-1c0-0.3-0.1-0.6-0.3-0.8c-0.2-0.2-0.5-0.3-0.9-0.3c-0.4,0-0.7,0.1-0.9,0.3c-0.2,0.2-0.4,0.6-0.4,1l-0.8-0.1
			c0.1-0.6,0.3-1.1,0.6-1.4c0.4-0.3,0.9-0.5,1.5-0.5c0.6,0,1.1,0.2,1.5,0.5s0.6,0.8,0.6,1.3c0,0.3-0.1,0.5-0.2,0.8
			c-0.1,0.3-0.3,0.5-0.5,0.8c-0.2,0.3-0.7,0.7-1.2,1.2c-0.5,0.4-0.8,0.7-0.9,0.8c-0.1,0.1-0.3,0.3-0.3,0.4H681.9z"/>
		<path d="M682.7-406.3l0.8-0.1c0.1,0.5,0.3,0.8,0.5,1c0.2,0.2,0.5,0.3,0.8,0.3c0.4,0,0.7-0.1,1-0.4c0.3-0.3,0.4-0.6,0.4-1
			c0-0.4-0.1-0.7-0.4-0.9c-0.2-0.2-0.5-0.4-0.9-0.4c-0.2,0-0.3,0-0.6,0.1l0.1-0.7c0.1,0,0.1,0,0.1,0c0.3,0,0.7-0.1,0.9-0.3
			c0.3-0.2,0.4-0.5,0.4-0.8c0-0.3-0.1-0.5-0.3-0.7c-0.2-0.2-0.5-0.3-0.8-0.3c-0.3,0-0.6,0.1-0.8,0.3c-0.2,0.2-0.3,0.5-0.4,0.9
			l-0.8-0.1c0.1-0.5,0.3-1,0.7-1.3c0.3-0.3,0.8-0.4,1.3-0.4c0.4,0,0.7,0.1,1,0.2c0.3,0.2,0.5,0.4,0.7,0.6c0.2,0.3,0.2,0.5,0.2,0.8
			c0,0.3-0.1,0.5-0.2,0.8c-0.2,0.2-0.4,0.4-0.7,0.6c0.4,0.1,0.7,0.3,0.9,0.6s0.3,0.6,0.3,1.1c0,0.6-0.2,1.1-0.6,1.5
			c-0.4,0.4-0.9,0.6-1.6,0.6c-0.6,0-1.1-0.2-1.4-0.5C683-405.4,682.8-405.8,682.7-406.3z"/>
		<path d="M689.1-408.2c-0.3-0.1-0.6-0.3-0.7-0.5c-0.2-0.2-0.2-0.5-0.2-0.8c0-0.5,0.2-0.9,0.5-1.2c0.3-0.3,0.8-0.5,1.4-0.5
			c0.6,0,1,0.2,1.4,0.5c0.3,0.3,0.5,0.7,0.5,1.2c0,0.3-0.1,0.6-0.2,0.8c-0.2,0.2-0.4,0.4-0.7,0.5c0.4,0.1,0.7,0.3,0.9,0.6
			c0.2,0.3,0.3,0.6,0.3,1c0,0.6-0.2,1-0.6,1.4c-0.4,0.4-0.9,0.6-1.6,0.6c-0.6,0-1.2-0.2-1.6-0.6c-0.4-0.4-0.6-0.9-0.6-1.4
			c0-0.4,0.1-0.8,0.3-1.1C688.4-407.9,688.7-408.1,689.1-408.2z M688.6-406.5c0,0.2,0.1,0.5,0.2,0.7c0.1,0.2,0.3,0.4,0.5,0.5
			c0.2,0.1,0.4,0.2,0.7,0.2c0.4,0,0.7-0.1,1-0.4c0.2-0.2,0.4-0.6,0.4-0.9c0-0.4-0.1-0.7-0.4-1c-0.3-0.3-0.6-0.4-1-0.4
			c-0.4,0-0.7,0.1-0.9,0.4C688.8-407.2,688.6-406.9,688.6-406.5z M688.9-409.5c0,0.3,0.1,0.6,0.3,0.8c0.2,0.2,0.5,0.3,0.8,0.3
			c0.3,0,0.6-0.1,0.8-0.3c0.2-0.2,0.3-0.4,0.3-0.7c0-0.3-0.1-0.5-0.3-0.7c-0.2-0.2-0.5-0.3-0.8-0.3c-0.3,0-0.6,0.1-0.8,0.3
			C689-410,688.9-409.8,688.9-409.5z"/>
		<path d="M693-406.1l0.8-0.1c0.1,0.4,0.2,0.6,0.4,0.8c0.2,0.2,0.4,0.2,0.7,0.2c0.2,0,0.5-0.1,0.7-0.2c0.2-0.1,0.3-0.3,0.5-0.5
			c0.1-0.2,0.2-0.4,0.3-0.8c0.1-0.3,0.1-0.7,0.1-1c0,0,0-0.1,0-0.2c-0.2,0.3-0.4,0.5-0.7,0.6c-0.3,0.2-0.6,0.2-0.9,0.2
			c-0.5,0-1-0.2-1.4-0.6c-0.4-0.4-0.6-0.9-0.6-1.6c0-0.7,0.2-1.2,0.6-1.6c0.4-0.4,0.9-0.6,1.5-0.6c0.4,0,0.8,0.1,1.2,0.3
			c0.4,0.2,0.6,0.6,0.8,1c0.2,0.4,0.3,1,0.3,1.8c0,0.8-0.1,1.5-0.3,2c-0.2,0.5-0.5,0.9-0.8,1.1c-0.4,0.3-0.8,0.4-1.3,0.4
			c-0.5,0-0.9-0.1-1.3-0.4C693.3-405.2,693.1-405.6,693-406.1z M696.4-409c0-0.5-0.1-0.8-0.4-1.1c-0.2-0.3-0.5-0.4-0.9-0.4
			c-0.4,0-0.7,0.1-0.9,0.4c-0.3,0.3-0.4,0.7-0.4,1.1c0,0.4,0.1,0.8,0.4,1c0.3,0.3,0.6,0.4,0.9,0.4c0.4,0,0.7-0.1,0.9-0.4
			C696.2-408.2,696.4-408.6,696.4-409z"/>
		<path d="M705.6-406.9l0.9,0.2c-0.2,0.7-0.5,1.3-1,1.6c-0.5,0.4-1.1,0.6-1.7,0.6c-0.7,0-1.3-0.1-1.7-0.4c-0.4-0.3-0.8-0.7-1-1.3
			c-0.2-0.5-0.3-1.1-0.3-1.8c0-0.7,0.1-1.3,0.4-1.8c0.3-0.5,0.6-0.9,1.1-1.2c0.5-0.3,1-0.4,1.6-0.4c0.7,0,1.2,0.2,1.7,0.5
			c0.4,0.3,0.8,0.8,0.9,1.4l-0.9,0.2c-0.2-0.5-0.4-0.8-0.7-1c-0.3-0.2-0.7-0.3-1.1-0.3c-0.5,0-0.9,0.1-1.3,0.4
			c-0.3,0.2-0.6,0.6-0.7,1c-0.1,0.4-0.2,0.8-0.2,1.3c0,0.6,0.1,1,0.2,1.5c0.2,0.4,0.4,0.7,0.8,0.9c0.3,0.2,0.7,0.3,1.1,0.3
			c0.5,0,0.9-0.1,1.2-0.4C705.2-405.9,705.5-406.4,705.6-406.9z"/>
	</g>
	<g>
		<path d="M484.1-405.6v-6.6h2.5c0.4,0,0.8,0,1,0.1c0.3,0.1,0.6,0.2,0.8,0.3c0.2,0.2,0.4,0.4,0.5,0.6c0.1,0.3,0.2,0.6,0.2,0.9
			c0,0.6-0.2,1-0.5,1.4c-0.4,0.4-1,0.6-1.9,0.6H485v2.7H484.1z M485-409.1h1.7c0.6,0,1-0.1,1.2-0.3c0.2-0.2,0.4-0.5,0.4-0.9
			c0-0.3-0.1-0.5-0.2-0.7c-0.1-0.2-0.3-0.3-0.5-0.4c-0.1,0-0.4-0.1-0.8-0.1H485V-409.1z"/>
		<path d="M493.3-406.2c-0.3,0.3-0.6,0.4-0.9,0.5c-0.3,0.1-0.6,0.2-0.9,0.2c-0.5,0-0.9-0.1-1.2-0.4c-0.3-0.3-0.4-0.6-0.4-1
			c0-0.2,0.1-0.4,0.2-0.6c0.1-0.2,0.2-0.3,0.4-0.5c0.2-0.1,0.4-0.2,0.6-0.3c0.2,0,0.4-0.1,0.7-0.1c0.7-0.1,1.1-0.2,1.4-0.3
			c0-0.1,0-0.2,0-0.2c0-0.3-0.1-0.6-0.2-0.7c-0.2-0.2-0.5-0.3-0.9-0.3c-0.4,0-0.7,0.1-0.8,0.2c-0.2,0.1-0.3,0.4-0.4,0.7L490-409
			c0.1-0.3,0.2-0.6,0.4-0.8c0.2-0.2,0.4-0.4,0.7-0.5c0.3-0.1,0.7-0.2,1.1-0.2c0.4,0,0.7,0,1,0.1s0.4,0.2,0.6,0.4
			c0.1,0.1,0.2,0.3,0.3,0.5c0,0.1,0,0.4,0,0.7v1.1c0,0.7,0,1.2,0.1,1.4c0,0.2,0.1,0.4,0.2,0.6h-0.8
			C493.3-405.8,493.3-406,493.3-406.2z M493.2-408c-0.3,0.1-0.7,0.2-1.3,0.3c-0.3,0-0.6,0.1-0.7,0.2c-0.1,0.1-0.2,0.1-0.3,0.3
			c-0.1,0.1-0.1,0.2-0.1,0.4c0,0.2,0.1,0.4,0.2,0.5c0.2,0.1,0.4,0.2,0.7,0.2c0.3,0,0.6-0.1,0.8-0.2c0.2-0.1,0.4-0.3,0.5-0.6
			c0.1-0.2,0.1-0.5,0.1-0.8V-408z"/>
		<path d="M495.3-405.6v-4.8h0.7v0.7c0.3-0.5,0.9-0.8,1.5-0.8c0.3,0,0.5,0.1,0.8,0.2c0.2,0.1,0.4,0.2,0.5,0.4
			c0.1,0.2,0.2,0.4,0.3,0.6c0,0.1,0,0.4,0,0.8v2.9h-0.8v-2.9c0-0.3,0-0.6-0.1-0.7c-0.1-0.2-0.2-0.3-0.3-0.4
			c-0.2-0.1-0.3-0.1-0.6-0.1c-0.3,0-0.6,0.1-0.9,0.3c-0.2,0.2-0.4,0.6-0.4,1.2v2.6H495.3z"/>
		<path d="M502.1-406.3l0.1,0.7c-0.2,0-0.4,0.1-0.6,0.1c-0.3,0-0.5,0-0.7-0.1c-0.2-0.1-0.3-0.2-0.3-0.4c-0.1-0.2-0.1-0.5-0.1-1v-2.7
			h-0.6v-0.6h0.6v-1.2l0.8-0.5v1.7h0.8v0.6h-0.8v2.8c0,0.2,0,0.4,0,0.4c0,0.1,0.1,0.1,0.1,0.2c0.1,0,0.2,0.1,0.3,0.1
			C501.9-406.3,502-406.3,502.1-406.3z"/>
		<path d="M502.6-408c0-0.9,0.2-1.5,0.7-2c0.4-0.4,0.9-0.5,1.5-0.5c0.7,0,1.2,0.2,1.6,0.6c0.4,0.4,0.6,1,0.6,1.8
			c0,0.6-0.1,1.1-0.3,1.4c-0.2,0.4-0.5,0.6-0.8,0.8c-0.4,0.2-0.7,0.3-1.1,0.3c-0.7,0-1.2-0.2-1.6-0.6
			C502.8-406.6,502.6-407.2,502.6-408z M503.4-408c0,0.6,0.1,1.1,0.4,1.4c0.3,0.3,0.6,0.5,1,0.5c0.4,0,0.7-0.2,1-0.5
			c0.3-0.3,0.4-0.8,0.4-1.4c0-0.6-0.1-1-0.4-1.3c-0.3-0.3-0.6-0.5-1-0.5c-0.4,0-0.7,0.2-1,0.5C503.6-409.1,503.4-408.6,503.4-408z"
			/>
		<path d="M508-405.6v-4.8h0.7v0.7c0.3-0.5,0.9-0.8,1.5-0.8c0.3,0,0.5,0.1,0.8,0.2c0.2,0.1,0.4,0.2,0.5,0.4c0.1,0.2,0.2,0.4,0.3,0.6
			c0,0.1,0,0.4,0,0.8v2.9h-0.8v-2.9c0-0.3,0-0.6-0.1-0.7c-0.1-0.2-0.2-0.3-0.3-0.4c-0.2-0.1-0.3-0.1-0.6-0.1c-0.3,0-0.6,0.1-0.9,0.3
			c-0.2,0.2-0.4,0.6-0.4,1.2v2.6H508z"/>
		<path d="M516.4-407.1l0.8,0.1c-0.1,0.5-0.4,0.9-0.7,1.1c-0.4,0.3-0.8,0.4-1.4,0.4c-0.7,0-1.2-0.2-1.7-0.6c-0.4-0.4-0.6-1-0.6-1.8
			c0-0.8,0.2-1.4,0.6-1.9c0.4-0.4,0.9-0.7,1.6-0.7c0.6,0,1.2,0.2,1.6,0.6c0.4,0.4,0.6,1,0.6,1.8c0,0,0,0.1,0,0.2h-3.6
			c0,0.5,0.2,0.9,0.4,1.2c0.3,0.3,0.6,0.4,1,0.4c0.3,0,0.5-0.1,0.8-0.2C516.1-406.6,516.3-406.8,516.4-407.1z M513.7-408.4h2.7
			c0-0.4-0.1-0.7-0.3-0.9c-0.3-0.3-0.6-0.5-1-0.5c-0.4,0-0.7,0.1-0.9,0.4C513.9-409.2,513.8-408.9,513.7-408.4z"/>
		<path d="M522.7-410.4c0,0.2-0.2,0.5-0.5,0.5c-0.3,0-0.5-0.2-0.5-0.5c0-0.2,0.1-0.5,0.5-0.5C522.4-410.9,522.7-410.7,522.7-410.4z
			 M522.7-408c0,0.2-0.2,0.5-0.5,0.5c-0.3,0-0.5-0.3-0.5-0.5c0-0.2,0.2-0.5,0.5-0.5C522.4-408.6,522.7-408.4,522.7-408z"/>
		<path d="M531.4-406.4v0.8h-4.3c0-0.2,0-0.4,0.1-0.6c0.1-0.3,0.3-0.6,0.5-0.9c0.2-0.3,0.6-0.6,1.1-1c0.7-0.6,1.2-1,1.4-1.4
			c0.3-0.3,0.4-0.7,0.4-1c0-0.3-0.1-0.6-0.3-0.8c-0.2-0.2-0.5-0.3-0.9-0.3c-0.4,0-0.7,0.1-0.9,0.3c-0.2,0.2-0.4,0.6-0.4,1l-0.8-0.1
			c0.1-0.6,0.3-1.1,0.6-1.4c0.4-0.3,0.9-0.5,1.5-0.5c0.6,0,1.1,0.2,1.5,0.5c0.4,0.3,0.6,0.8,0.6,1.3c0,0.3-0.1,0.5-0.2,0.8
			c-0.1,0.3-0.3,0.5-0.5,0.8c-0.2,0.3-0.7,0.7-1.2,1.2c-0.5,0.4-0.8,0.7-0.9,0.8c-0.1,0.1-0.3,0.3-0.3,0.4H531.4z"/>
		<path d="M535.3-405.6h-0.8v-5.1c-0.2,0.2-0.4,0.4-0.8,0.6c-0.3,0.2-0.6,0.3-0.8,0.4v-0.8c0.5-0.2,0.8-0.5,1.2-0.8
			c0.3-0.3,0.6-0.6,0.7-0.9h0.5V-405.6z"/>
		<path d="M537.4-407.3l0.8-0.1c0.1,0.4,0.2,0.7,0.4,0.9s0.5,0.3,0.8,0.3c0.4,0,0.7-0.1,1-0.4c0.3-0.3,0.4-0.7,0.4-1.2
			c0-0.5-0.1-0.8-0.4-1.1c-0.3-0.3-0.6-0.4-1-0.4c-0.3,0-0.5,0.1-0.7,0.2c-0.2,0.1-0.4,0.3-0.5,0.5l-0.8-0.1l0.6-3.4h3.3v0.8h-2.6
			l-0.4,1.8c0.4-0.3,0.8-0.4,1.2-0.4c0.6,0,1.1,0.2,1.5,0.6c0.4,0.4,0.6,0.9,0.6,1.5c0,0.6-0.2,1.1-0.5,1.5c-0.4,0.5-1,0.8-1.7,0.8
			c-0.6,0-1.1-0.2-1.5-0.5C537.6-406.3,537.4-406.8,537.4-407.3z"/>
		<path d="M542.5-408.8c0-0.8,0.1-1.4,0.2-1.9c0.2-0.5,0.4-0.8,0.7-1.1c0.3-0.3,0.7-0.4,1.2-0.4c0.4,0,0.7,0.1,0.9,0.2
			c0.3,0.1,0.5,0.3,0.7,0.6c0.2,0.3,0.3,0.6,0.4,1c0.1,0.4,0.1,0.9,0.1,1.6c0,0.8-0.1,1.4-0.2,1.9c-0.2,0.5-0.4,0.8-0.7,1.1
			c-0.3,0.3-0.7,0.4-1.2,0.4c-0.6,0-1.1-0.2-1.5-0.7C542.7-406.7,542.5-407.6,542.5-408.8z M543.3-408.8c0,1.1,0.1,1.8,0.4,2.2
			c0.3,0.4,0.6,0.5,0.9,0.5c0.4,0,0.7-0.2,0.9-0.5c0.3-0.4,0.4-1.1,0.4-2.2c0-1.1-0.1-1.8-0.4-2.2c-0.3-0.4-0.6-0.5-0.9-0.5
			c-0.4,0-0.7,0.2-0.9,0.5C543.4-410.7,543.3-409.9,543.3-408.8z"/>
		<path d="M555.1-407.9l0.9,0.2c-0.2,0.7-0.5,1.3-1,1.6c-0.5,0.4-1.1,0.6-1.7,0.6c-0.7,0-1.3-0.1-1.7-0.4c-0.4-0.3-0.8-0.7-1-1.3
			c-0.2-0.5-0.3-1.1-0.3-1.8c0-0.7,0.1-1.3,0.4-1.8c0.3-0.5,0.6-0.9,1.1-1.2c0.5-0.3,1-0.4,1.6-0.4c0.7,0,1.2,0.2,1.7,0.5
			c0.4,0.3,0.8,0.8,0.9,1.4l-0.9,0.2c-0.2-0.5-0.4-0.8-0.7-1c-0.3-0.2-0.7-0.3-1.1-0.3c-0.5,0-0.9,0.1-1.3,0.4
			c-0.3,0.2-0.6,0.6-0.7,1c-0.1,0.4-0.2,0.8-0.2,1.3c0,0.6,0.1,1,0.2,1.5c0.2,0.4,0.4,0.7,0.8,0.9c0.3,0.2,0.7,0.3,1.1,0.3
			c0.5,0,0.9-0.1,1.2-0.4C554.8-406.9,555-407.4,555.1-407.9z"/>
	</g>
	<rect x="457.9" y="-419.2" class="st0" width="20.2" height="20.1"/>
	<rect x="434.2" y="-514.4" class="st5" width="149.5" height="126.5"/>
	<rect x="583.7" y="-514.4" class="st5" width="149.5" height="126.5"/>
	<rect x="733.2" y="-514.4" class="st5" width="149.5" height="126.5"/>
	<rect x="1738.8" y="-502.2" class="st6" width="47.9" height="47.9"/>
	<rect x="1715.9" y="-418.2" class="st6" width="20.2" height="20.1"/>
	<g>
		<path class="st3" d="M1731.5-437.5l0.6,0.2c-0.4,1.5-1.4,2.3-3.1,2.3c-2-0.1-3.1-1.3-3.2-3.5c0.1-2.3,1.2-3.6,3.3-3.7
			c1.4,0,2.3,0.7,2.8,2l-0.6,0.1c-0.4-1.1-1.2-1.6-2.3-1.7c-1.6,0.1-2.5,1.2-2.6,3.1c0.1,2,0.9,3,2.6,3.2
			C1730.4-435.5,1731.2-436.2,1731.5-437.5z"/>
		<path class="st3" d="M1736.9-442.3c1.5,0,2.3,1.2,2.3,3.7c0,2.3-0.8,3.5-2.3,3.6c-1.5,0-2.3-1.2-2.4-3.6
			C1734.6-441,1735.4-442.2,1736.9-442.3z M1736.9-435.5c1.2,0,1.8-1,1.8-3.1c0-2.2-0.6-3.2-1.8-3.2c-1.1,0-1.7,1.1-1.7,3.2
			C1735.2-436.5,1735.7-435.5,1736.9-435.5z"/>
		<path class="st3" d="M1750.5-442.2h0.9v7h-0.5v-6.6h-0.1l-2.6,6.6h-0.5l-2.6-6.6h-0.1v6.6h-0.5v-7h0.9l2.5,6.4h0L1750.5-442.2z"/>
		<path class="st3" d="M1789.6-439.8c1.4,0.1,2.1,0.8,2.2,2.3c0,1.6-0.8,2.4-2.3,2.5c-1.3,0-2.1-0.6-2.4-1.9l0.5-0.1
			c0.2,1.1,0.8,1.6,1.8,1.6c1.2,0,1.8-0.7,1.8-2c0-1.2-0.6-1.9-1.8-1.9c-0.8,0-1.3,0.3-1.7,0.9l-0.4-0.1l0.4-3.7h3.6v0.5h-3.2
			l-0.3,2.6C1788.3-439.6,1788.9-439.8,1789.6-439.8z"/>
		<path class="st3" d="M1768.1-442.2l-3,4v3h-0.5v-3l-2.9-4h0.6l2.6,3.6l2.7-3.6H1768.1z"/>
		<path class="st3" d="M1755.9-442.3c1.5,0,2.3,1.2,2.3,3.7c0,2.3-0.8,3.5-2.3,3.6c-1.5,0-2.3-1.2-2.4-3.6
			C1753.7-441,1754.4-442.2,1755.9-442.3z M1755.9-435.5c1.2,0,1.8-1,1.8-3.1c0-2.2-0.6-3.2-1.8-3.2c-1.1,0-1.7,1.1-1.7,3.2
			C1754.2-436.5,1754.8-435.5,1755.9-435.5z"/>
		<path class="st3" d="M1771.7-442.3c1.5,0,2.3,1.2,2.3,3.7c0,2.3-0.8,3.5-2.3,3.6c-1.5,0-2.3-1.2-2.4-3.6
			C1769.4-441,1770.2-442.2,1771.7-442.3z M1771.7-435.5c1.2,0,1.8-1,1.8-3.1c0-2.2-0.6-3.2-1.8-3.2c-1.1,0-1.7,1.1-1.7,3.2
			C1769.9-436.5,1770.5-435.5,1771.7-435.5z"/>
		<path class="st3" d="M1785-435.2l-2.8-3.7l-1.7,1.7v2.1h-0.6v-7h0.6v4.3l4.4-4.3h0.7l-3.1,3l3.2,4H1785z"/>
		<path class="st3" d="M1795-442.3c1.5,0,2.3,1.2,2.3,3.7c0,2.3-0.8,3.5-2.3,3.6c-1.5,0-2.3-1.2-2.4-3.6
			C1792.7-441,1793.5-442.2,1795-442.3z M1795-435.5c1.2,0,1.8-1,1.8-3.1c0-2.2-0.6-3.2-1.8-3.2c-1.1,0-1.7,1.1-1.7,3.2
			C1793.2-436.5,1793.8-435.5,1795-435.5z"/>
	</g>
	<g>
		<path d="M1742.7-404.6v-6.6h2.5c0.4,0,0.8,0,1,0.1c0.3,0.1,0.6,0.2,0.8,0.3c0.2,0.2,0.4,0.4,0.5,0.6c0.1,0.3,0.2,0.6,0.2,0.9
			c0,0.6-0.2,1-0.5,1.4c-0.4,0.4-1,0.6-1.9,0.6h-1.7v2.7H1742.7z M1743.5-408.1h1.7c0.6,0,1-0.1,1.2-0.3c0.2-0.2,0.4-0.5,0.4-0.9
			c0-0.3-0.1-0.5-0.2-0.7c-0.1-0.2-0.3-0.3-0.5-0.4c-0.1,0-0.4-0.1-0.8-0.1h-1.7V-408.1z"/>
		<path d="M1751.8-405.2c-0.3,0.3-0.6,0.4-0.9,0.5c-0.3,0.1-0.6,0.2-0.9,0.2c-0.5,0-0.9-0.1-1.2-0.4c-0.3-0.3-0.4-0.6-0.4-1
			c0-0.2,0.1-0.4,0.2-0.6c0.1-0.2,0.2-0.3,0.4-0.5c0.2-0.1,0.4-0.2,0.6-0.3c0.2,0,0.4-0.1,0.7-0.1c0.7-0.1,1.1-0.2,1.4-0.3
			c0-0.1,0-0.2,0-0.2c0-0.3-0.1-0.6-0.2-0.7c-0.2-0.2-0.5-0.3-0.9-0.3c-0.4,0-0.7,0.1-0.8,0.2c-0.2,0.1-0.3,0.4-0.4,0.7l-0.8-0.1
			c0.1-0.3,0.2-0.6,0.4-0.8c0.2-0.2,0.4-0.4,0.7-0.5c0.3-0.1,0.7-0.2,1.1-0.2c0.4,0,0.7,0,1,0.1s0.4,0.2,0.6,0.4
			c0.1,0.1,0.2,0.3,0.3,0.5c0,0.1,0,0.4,0,0.7v1.1c0,0.7,0,1.2,0.1,1.4c0,0.2,0.1,0.4,0.2,0.6h-0.8
			C1751.9-404.8,1751.8-405,1751.8-405.2z M1751.7-407c-0.3,0.1-0.7,0.2-1.3,0.3c-0.3,0-0.6,0.1-0.7,0.2c-0.1,0.1-0.2,0.1-0.3,0.3
			c-0.1,0.1-0.1,0.2-0.1,0.4c0,0.2,0.1,0.4,0.2,0.5c0.2,0.1,0.4,0.2,0.7,0.2c0.3,0,0.6-0.1,0.8-0.2c0.2-0.1,0.4-0.3,0.5-0.6
			c0.1-0.2,0.1-0.5,0.1-0.8V-407z"/>
		<path d="M1753.8-404.6v-4.8h0.7v0.7c0.3-0.5,0.9-0.8,1.5-0.8c0.3,0,0.5,0.1,0.8,0.2c0.2,0.1,0.4,0.2,0.5,0.4
			c0.1,0.2,0.2,0.4,0.3,0.6c0,0.1,0,0.4,0,0.8v2.9h-0.8v-2.9c0-0.3,0-0.6-0.1-0.7c-0.1-0.2-0.2-0.3-0.3-0.4
			c-0.2-0.1-0.3-0.1-0.6-0.1c-0.3,0-0.6,0.1-0.9,0.3c-0.2,0.2-0.4,0.6-0.4,1.2v2.6H1753.8z"/>
		<path d="M1760.6-405.3l0.1,0.7c-0.2,0-0.4,0.1-0.6,0.1c-0.3,0-0.5,0-0.7-0.1c-0.2-0.1-0.3-0.2-0.3-0.4c-0.1-0.2-0.1-0.5-0.1-1
			v-2.7h-0.6v-0.6h0.6v-1.2l0.8-0.5v1.7h0.8v0.6h-0.8v2.8c0,0.2,0,0.4,0,0.4c0,0.1,0.1,0.1,0.1,0.2c0.1,0,0.2,0.1,0.3,0.1
			C1760.4-405.3,1760.5-405.3,1760.6-405.3z"/>
		<path d="M1761.1-407c0-0.9,0.2-1.5,0.7-2c0.4-0.4,0.9-0.5,1.5-0.5c0.7,0,1.2,0.2,1.6,0.6c0.4,0.4,0.6,1,0.6,1.8
			c0,0.6-0.1,1.1-0.3,1.4c-0.2,0.4-0.5,0.6-0.8,0.8c-0.4,0.2-0.7,0.3-1.1,0.3c-0.7,0-1.2-0.2-1.6-0.6
			C1761.3-405.6,1761.1-406.2,1761.1-407z M1762-407c0,0.6,0.1,1.1,0.4,1.4c0.3,0.3,0.6,0.5,1,0.5c0.4,0,0.7-0.2,1-0.5
			c0.3-0.3,0.4-0.8,0.4-1.4c0-0.6-0.1-1-0.4-1.3c-0.3-0.3-0.6-0.5-1-0.5c-0.4,0-0.7,0.2-1,0.5C1762.1-408.1,1762-407.6,1762-407z"/>
		<path d="M1766.5-404.6v-4.8h0.7v0.7c0.3-0.5,0.9-0.8,1.5-0.8c0.3,0,0.5,0.1,0.8,0.2c0.2,0.1,0.4,0.2,0.5,0.4
			c0.1,0.2,0.2,0.4,0.3,0.6c0,0.1,0,0.4,0,0.8v2.9h-0.8v-2.9c0-0.3,0-0.6-0.1-0.7c-0.1-0.2-0.2-0.3-0.3-0.4
			c-0.2-0.1-0.3-0.1-0.6-0.1c-0.3,0-0.6,0.1-0.9,0.3c-0.2,0.2-0.4,0.6-0.4,1.2v2.6H1766.5z"/>
		<path d="M1774.9-406.1l0.8,0.1c-0.1,0.5-0.4,0.9-0.7,1.1c-0.4,0.3-0.8,0.4-1.4,0.4c-0.7,0-1.2-0.2-1.7-0.6c-0.4-0.4-0.6-1-0.6-1.8
			c0-0.8,0.2-1.4,0.6-1.9c0.4-0.4,0.9-0.7,1.6-0.7c0.6,0,1.2,0.2,1.6,0.6c0.4,0.4,0.6,1,0.6,1.8c0,0,0,0.1,0,0.2h-3.6
			c0,0.5,0.2,0.9,0.4,1.2c0.3,0.3,0.6,0.4,1,0.4c0.3,0,0.5-0.1,0.8-0.2C1774.6-405.6,1774.8-405.8,1774.9-406.1z M1772.2-407.4h2.7
			c0-0.4-0.1-0.7-0.3-0.9c-0.3-0.3-0.6-0.5-1-0.5c-0.4,0-0.7,0.1-0.9,0.4C1772.4-408.2,1772.3-407.9,1772.2-407.4z"/>
		<path d="M1781.2-409.4c0,0.2-0.2,0.5-0.5,0.5c-0.3,0-0.5-0.2-0.5-0.5c0-0.2,0.1-0.5,0.5-0.5
			C1780.9-409.9,1781.2-409.7,1781.2-409.4z M1781.2-407c0,0.2-0.2,0.5-0.5,0.5c-0.3,0-0.5-0.3-0.5-0.5c0-0.2,0.2-0.5,0.5-0.5
			C1780.9-407.6,1781.2-407.4,1781.2-407z"/>
		<path d="M1788.3-404.6v-1.6h-2.8v-0.7l3-4.3h0.7v4.3h0.9v0.7h-0.9v1.6H1788.3z M1788.3-406.9v-3l-2.1,3H1788.3z"/>
		<path d="M1795-405.4v0.8h-4.3c0-0.2,0-0.4,0.1-0.6c0.1-0.3,0.3-0.6,0.5-0.9c0.2-0.3,0.6-0.6,1.1-1c0.7-0.6,1.2-1,1.4-1.4
			c0.3-0.3,0.4-0.7,0.4-1c0-0.3-0.1-0.6-0.3-0.8c-0.2-0.2-0.5-0.3-0.9-0.3c-0.4,0-0.7,0.1-0.9,0.3c-0.2,0.2-0.4,0.6-0.4,1l-0.8-0.1
			c0.1-0.6,0.3-1.1,0.6-1.4c0.4-0.3,0.9-0.5,1.5-0.5c0.6,0,1.1,0.2,1.5,0.5s0.6,0.8,0.6,1.3c0,0.3-0.1,0.5-0.2,0.8
			c-0.1,0.3-0.3,0.5-0.5,0.8c-0.2,0.3-0.7,0.7-1.2,1.2c-0.5,0.4-0.8,0.7-0.9,0.8c-0.1,0.1-0.3,0.3-0.3,0.4H1795z"/>
		<path d="M1795.9-406.3l0.8-0.1c0.1,0.5,0.3,0.8,0.5,1c0.2,0.2,0.5,0.3,0.8,0.3c0.4,0,0.7-0.1,1-0.4c0.3-0.3,0.4-0.6,0.4-1
			c0-0.4-0.1-0.7-0.4-0.9c-0.2-0.2-0.5-0.4-0.9-0.4c-0.2,0-0.3,0-0.6,0.1l0.1-0.7c0.1,0,0.1,0,0.1,0c0.3,0,0.7-0.1,0.9-0.3
			c0.3-0.2,0.4-0.5,0.4-0.8c0-0.3-0.1-0.5-0.3-0.7c-0.2-0.2-0.5-0.3-0.8-0.3c-0.3,0-0.6,0.1-0.8,0.3c-0.2,0.2-0.3,0.5-0.4,0.9
			l-0.8-0.1c0.1-0.5,0.3-1,0.7-1.3c0.3-0.3,0.8-0.4,1.3-0.4c0.4,0,0.7,0.1,1,0.2c0.3,0.2,0.5,0.4,0.7,0.6c0.2,0.3,0.2,0.5,0.2,0.8
			c0,0.3-0.1,0.5-0.2,0.8c-0.2,0.2-0.4,0.4-0.7,0.6c0.4,0.1,0.7,0.3,0.9,0.6c0.2,0.3,0.3,0.6,0.3,1.1c0,0.6-0.2,1.1-0.6,1.5
			c-0.4,0.4-0.9,0.6-1.6,0.6c-0.6,0-1.1-0.2-1.4-0.5C1796.2-405.4,1796-405.8,1795.9-406.3z"/>
		<path d="M1808.6-406.9l0.9,0.2c-0.2,0.7-0.5,1.3-1,1.6c-0.5,0.4-1.1,0.6-1.7,0.6c-0.7,0-1.3-0.1-1.7-0.4c-0.4-0.3-0.8-0.7-1-1.3
			c-0.2-0.5-0.3-1.1-0.3-1.8c0-0.7,0.1-1.3,0.4-1.8c0.3-0.5,0.6-0.9,1.1-1.2c0.5-0.3,1-0.4,1.6-0.4c0.7,0,1.2,0.2,1.7,0.5
			c0.4,0.3,0.8,0.8,0.9,1.4l-0.9,0.2c-0.2-0.5-0.4-0.8-0.7-1c-0.3-0.2-0.7-0.3-1.1-0.3c-0.5,0-0.9,0.1-1.3,0.4
			c-0.3,0.2-0.6,0.6-0.7,1c-0.1,0.4-0.2,0.8-0.2,1.3c0,0.6,0.1,1,0.2,1.5c0.2,0.4,0.4,0.7,0.8,0.9c0.3,0.2,0.7,0.3,1.1,0.3
			c0.5,0,0.9-0.1,1.2-0.4C1808.2-405.9,1808.4-406.4,1808.6-406.9z"/>
	</g>
	<rect x="1688.8" y="-514.4" class="st5" width="149.5" height="126.5"/>
	<rect x="1142.8" y="-514.4" class="st5" width="149.5" height="126.5"/>
</g>
<g id="logo">
	<g>
		<g>
			<polygon class="st1" points="523.6,-762.5 523.6,-803.8 493.3,-803.8 493.3,-762.5 508.4,-781.4 			"/>
			<polygon class="st1" points="473.7,-803.9 465.2,-803.9 465.2,-795.4 465.2,-763.9 473.7,-763.9 473.7,-795.4 488.9,-795.4 
				488.9,-803.9 			"/>
			<polygon class="st1" points="543.2,-759.5 543.2,-732.5 524.3,-732.5 508.6,-752.3 492.9,-732.5 473.7,-732.5 473.7,-759.5 
				465.2,-759.5 465.2,-732.5 465.2,-724 473.7,-724 514,-724 516.4,-724 543.2,-724 551.7,-724 551.7,-732.5 551.7,-759.5 			"/>
			<polygon class="st1" points="551.7,-803.9 543.2,-803.9 528,-803.9 528,-795.4 543.2,-795.4 543.2,-763.9 551.7,-763.9 
				551.7,-795.4 			"/>
		</g>
		<g>
			<polygon class="st1" points="754.3,-787.5 746.9,-761.4 739.6,-787.5 726.2,-787.5 739.2,-741.7 741.4,-741.7 752.5,-741.7 
				754.7,-741.7 767.6,-787.5 			"/>
			<g>
				<path class="st1" d="M821.1-787.5v26.7h0c-0.2,4.9-4.1,8.8-9,8.9v0c0,0-0.1,0-0.1,0c0,0-0.1,0-0.1,0v0c-4.9-0.1-8.8-4.1-9-8.9h0
					v-26.7h-12.8v25.3c0.2,11.9,9.7,21.5,21.6,21.9v0c0.1,0,0.2,0,0.3,0c0.1,0,0.2,0,0.3,0v0c11.9-0.3,21.4-10,21.6-21.9v-25.3
					H821.1z"/>
			</g>
			<polygon class="st1" points="772.1,-787.5 772.1,-762.3 772.1,-748.8 772.1,-741.7 784.1,-741.7 784.1,-757.1 784.1,-770.6 
				784.1,-787.5 			"/>
			<polygon class="st0" points="627.8,-768.7 627.8,-753.3 627.8,-745.7 627.8,-741.7 640.7,-741.7 640.7,-750.4 640.7,-758 
				640.7,-768.7 			"/>
			<polygon class="st0" points="732.3,-742 719.6,-787 717.4,-787 706.5,-787 704.3,-787 691.6,-742 704.7,-742 712,-767.6 
				719.2,-742 			"/>
			<polygon class="st0" points="688.7,-787.1 649.3,-787.1 649.3,-774.5 666.6,-774.5 666.6,-774.5 671.5,-774.5 649.3,-754.5 
				649.3,-741.9 688.7,-741.9 688.7,-754.5 667.1,-754.5 688.7,-774.5 			"/>
			<polygon class="st0" points="571,-742.1 571,-787 584.2,-787 584.2,-764.8 594.7,-778 605.2,-764.8 605.3,-787 618.6,-787 
				618.6,-742 605.3,-742 594.8,-756.7 584.2,-742 			"/>
			<g>
				<path class="st2" d="M641.5-780.4c0,4-3.2,7.2-7.2,7.2c-4,0-7.2-3.2-7.2-7.2c0-4,3.2-7.2,7.2-7.2
					C638.2-787.6,641.5-784.4,641.5-780.4"/>
			</g>
		</g>
	</g>
	<g>
		<polygon class="st1" points="627,-1106.5 627,-1035.9 652.7,-1068.2 678.6,-1035.9 678.6,-1106.5 		"/>
		<polygon class="st1" points="579,-1106.6 579,-1092 579,-1038.4 593.5,-1038.4 593.5,-1092 619.4,-1092 619.4,-1106.6 
			593.5,-1106.6 		"/>
		<polygon class="st1" points="712.1,-984.8 679.8,-984.8 653.1,-1018.5 626.3,-984.8 593.5,-984.8 593.5,-1030.9 579,-1030.9 
			579,-984.8 579,-970.2 593.5,-970.2 662.2,-970.2 666.3,-970.2 712.1,-970.2 726.7,-970.2 726.7,-984.8 726.7,-1030.9 
			712.1,-1030.9 		"/>
		<polygon class="st1" points="712.1,-1106.6 686.2,-1106.6 686.2,-1092 712.1,-1092 712.1,-1038.4 726.7,-1038.4 726.7,-1092 
			726.7,-1106.6 		"/>
		<polygon class="st1" points="714.9,-952 706,-920.8 697.2,-952 681.3,-952 696.8,-897.3 699.4,-897.3 712.7,-897.3 715.3,-897.3 
			730.8,-952 		"/>
		<g>
			<path class="st1" d="M794.8-952v32h0c-0.2,5.8-4.9,10.5-10.8,10.7v0c-0.1,0-0.1,0-0.2,0c-0.1,0-0.1,0-0.2,0v0
				c-5.8-0.2-10.6-4.9-10.8-10.7h0v-32h-15.3v30.3c0.2,14.2,11.6,25.8,25.8,26.2v0c0.1,0,0.3,0,0.4,0c0.1,0,0.3,0,0.4,0v0
				c14.2-0.4,25.6-11.9,25.8-26.2V-952H794.8z"/>
		</g>
		<polygon class="st1" points="736.2,-952 736.2,-921.9 736.2,-905.8 736.2,-897.2 750.6,-897.2 750.6,-915.7 750.6,-931.9 
			750.6,-952 		"/>
		<polygon class="st0" points="563.5,-929.6 563.5,-911.2 563.5,-902 563.5,-897.2 579,-897.2 579,-907.7 579,-916.8 579,-929.6 		
			"/>
		<polygon class="st0" points="688.6,-897.6 673.4,-951.4 670.8,-951.4 657.7,-951.4 655.1,-951.4 639.9,-897.6 655.6,-897.6 
			664.2,-928.3 672.9,-897.6 		"/>
		<polygon class="st0" points="636.4,-951.6 589.3,-951.6 589.3,-936.5 610,-936.5 610,-936.5 615.8,-936.5 589.3,-912.6 
			589.3,-897.5 636.4,-897.5 636.4,-912.6 610.6,-912.6 636.4,-936.5 		"/>
		<polygon class="st0" points="495.5,-897.7 495.5,-951.5 511.4,-951.5 511.4,-924.9 524,-940.7 536.5,-924.9 536.6,-951.5 
			552.5,-951.5 552.5,-897.6 536.6,-897.6 524.1,-915.2 511.4,-897.6 		"/>
		<g>
			<path class="st2" d="M579.9-943.5c0,4.8-3.9,8.6-8.6,8.6c-4.8,0-8.6-3.9-8.6-8.6c0-4.8,3.9-8.6,8.6-8.6
				C576-952.1,579.9-948.3,579.9-943.5"/>
		</g>
	</g>
	<g>
		<polygon class="st1" points="1349.8,19.4 1296.4,208.7 1243,19.4 1146.5,19.4 1240.2,351.3 1256.2,351.3 1336.7,351.3 
			1352.6,351.3 1446.4,19.4 		"/>
		<g>
			<path class="st1" d="M1834.7,19.4v194h0c-1.3,35.4-29.8,63.8-65.3,64.8v0.1c-0.3,0-0.6,0-1,0c-0.3,0-0.7,0-1,0v-0.1
				c-35.5-1-64-29.4-65.3-64.8h0v-194h-92.7v183.8c1.3,86.4,70.5,156.3,156.6,158.8v0.1c0.8,0,1.6-0.1,2.4-0.1
				c0.8,0,1.6,0.1,2.3,0.1V362c86.1-2.5,155.3-72.4,156.6-158.8V19.4H1834.7z"/>
		</g>
		<polygon class="st1" points="1479.1,19.4 1479.1,201.9 1479.1,300 1479.1,351.9 1566.6,351.9 1566.6,239.8 1566.6,141.7 
			1566.6,19.4 		"/>
		<polygon class="st0" points="432.2,155.7 432.2,267.2 432.2,322.5 432.2,351.9 526,351.9 526,288.6 526,233.2 526,155.7 		"/>
		<polygon class="st0" points="1190.4,349.6 1098.1,23 1082.4,23 1003.2,23 987.4,23 895.2,349.6 990.2,349.6 1042.8,163.4 
			1095.3,349.6 		"/>
		<polygon class="st0" points="873.9,22.2 588.5,22.2 588.5,113.6 713.8,113.6 713.8,113.4 749.2,113.4 588.5,258.8 588.5,350.2 
			873.9,350.2 873.9,258.8 717.3,258.8 873.9,113.4 		"/>
		<polygon class="st0" points="19.7,348.6 19.7,22.8 116.1,22.8 116.1,183.8 192.3,88.4 268.4,183.8 268.8,22.8 365.1,22.8 
			365.1,349.7 268.8,349.5 193,242.9 116.1,349.5 		"/>
		<g>
			<path class="st2" d="M531.3,70.9c0,28.8-23.4,52.2-52.2,52.2c-28.8,0-52.2-23.4-52.2-52.2c0-28.8,23.4-52.2,52.2-52.2
				C508,18.7,531.3,42.1,531.3,70.9"/>
		</g>
	</g>
	<g>
		<g>
			<polygon class="st6" points="1639,-762.5 1639,-803.8 1608.7,-803.8 1608.7,-762.5 1623.8,-781.4 			"/>
			<polygon class="st6" points="1589.1,-803.9 1580.5,-803.9 1580.5,-795.4 1580.5,-763.9 1589.1,-763.9 1589.1,-795.4 
				1604.3,-795.4 1604.3,-803.9 			"/>
			<polygon class="st6" points="1658.6,-759.5 1658.6,-732.5 1639.7,-732.5 1624,-752.3 1608.3,-732.5 1589.1,-732.5 1589.1,-759.5 
				1580.5,-759.5 1580.5,-732.5 1580.5,-724 1589.1,-724 1629.3,-724 1631.7,-724 1658.6,-724 1667.1,-724 1667.1,-732.5 
				1667.1,-759.5 			"/>
			<polygon class="st6" points="1667.1,-803.9 1658.6,-803.9 1643.4,-803.9 1643.4,-795.4 1658.6,-795.4 1658.6,-763.9 
				1667.1,-763.9 1667.1,-795.4 			"/>
		</g>
		<g>
			<polygon class="st6" points="1869.6,-787.5 1862.3,-761.4 1854.9,-787.5 1841.6,-787.5 1854.5,-741.7 1856.7,-741.7 
				1867.8,-741.7 1870,-741.7 1882.9,-787.5 			"/>
			<g>
				<path class="st6" d="M1936.5-787.5v26.7h0c-0.2,4.9-4.1,8.8-9,8.9v0c0,0-0.1,0-0.1,0c0,0-0.1,0-0.1,0v0c-4.9-0.1-8.8-4.1-9-8.9
					h0v-26.7h-12.8v25.3c0.2,11.9,9.7,21.5,21.6,21.9v0c0.1,0,0.2,0,0.3,0c0.1,0,0.2,0,0.3,0v0c11.9-0.3,21.4-10,21.6-21.9v-25.3
					H1936.5z"/>
			</g>
			<polygon class="st6" points="1887.5,-787.5 1887.5,-762.3 1887.5,-748.8 1887.5,-741.7 1899.5,-741.7 1899.5,-757.1 
				1899.5,-770.6 1899.5,-787.5 			"/>
			<polygon class="st6" points="1743.2,-768.7 1743.2,-753.3 1743.2,-745.7 1743.2,-741.7 1756.1,-741.7 1756.1,-750.4 1756.1,-758 
				1756.1,-768.7 			"/>
			<polygon class="st6" points="1847.7,-742 1835,-787 1832.8,-787 1821.9,-787 1819.7,-787 1807,-742 1820.1,-742 1827.3,-767.6 
				1834.6,-742 			"/>
			<polygon class="st6" points="1804.1,-787.1 1764.7,-787.1 1764.7,-774.5 1782,-774.5 1782,-774.5 1786.9,-774.5 1764.7,-754.5 
				1764.7,-741.9 1804.1,-741.9 1804.1,-754.5 1782.5,-754.5 1804.1,-774.5 			"/>
			<polygon class="st6" points="1686.3,-742.1 1686.3,-787 1699.6,-787 1699.6,-764.8 1710.1,-778 1720.6,-764.8 1720.6,-787 
				1733.9,-787 1733.9,-742 1720.6,-742 1710.2,-756.7 1699.6,-742 			"/>
			<g>
				<path class="st6" d="M1756.8-780.4c0,4-3.2,7.2-7.2,7.2c-4,0-7.2-3.2-7.2-7.2c0-4,3.2-7.2,7.2-7.2
					C1753.6-787.6,1756.8-784.4,1756.8-780.4"/>
			</g>
		</g>
	</g>
	<g>
		<polygon class="st6" points="1742.3,-1106.5 1742.3,-1035.9 1768.1,-1068.2 1794,-1035.9 1794,-1106.5 		"/>
		<polygon class="st6" points="1694.3,-1106.6 1694.3,-1092 1694.3,-1038.4 1708.9,-1038.4 1708.9,-1092 1734.8,-1092 
			1734.8,-1106.6 1708.9,-1106.6 		"/>
		<polygon class="st6" points="1827.5,-984.8 1795.2,-984.8 1768.4,-1018.5 1741.7,-984.8 1708.9,-984.8 1708.9,-1030.9 
			1694.3,-1030.9 1694.3,-984.8 1694.3,-970.2 1708.9,-970.2 1777.6,-970.2 1781.7,-970.2 1827.5,-970.2 1842,-970.2 1842,-984.8 
			1842,-1030.9 1827.5,-1030.9 		"/>
		<polygon class="st6" points="1827.5,-1106.6 1801.6,-1106.6 1801.6,-1092 1827.5,-1092 1827.5,-1038.4 1842,-1038.4 1842,-1092 
			1842,-1106.6 		"/>
		<polygon class="st6" points="1830.2,-952 1821.4,-920.8 1812.6,-952 1796.7,-952 1812.1,-897.3 1814.8,-897.3 1828.1,-897.3 
			1830.7,-897.3 1846.1,-952 		"/>
		<g>
			<path class="st6" d="M1910.2-952v32h0c-0.2,5.8-4.9,10.5-10.8,10.7v0c-0.1,0-0.1,0-0.2,0c-0.1,0-0.1,0-0.2,0v0
				c-5.8-0.2-10.6-4.9-10.8-10.7h0v-32H1873v30.3c0.2,14.2,11.6,25.8,25.8,26.2v0c0.1,0,0.3,0,0.4,0c0.1,0,0.3,0,0.4,0v0
				c14.2-0.4,25.6-11.9,25.8-26.2V-952H1910.2z"/>
		</g>
		<polygon class="st6" points="1851.5,-952 1851.5,-921.9 1851.5,-905.8 1851.5,-897.2 1866,-897.2 1866,-915.7 1866,-931.9 
			1866,-952 		"/>
		<polygon class="st6" points="1678.9,-929.6 1678.9,-911.2 1678.9,-902 1678.9,-897.2 1694.4,-897.2 1694.4,-907.7 1694.4,-916.8 
			1694.4,-929.6 		"/>
		<polygon class="st6" points="1803.9,-897.6 1788.7,-951.4 1786.1,-951.4 1773.1,-951.4 1770.5,-951.4 1755.3,-897.6 
			1770.9,-897.6 1779.6,-928.3 1788.3,-897.6 		"/>
		<polygon class="st6" points="1751.8,-951.6 1704.7,-951.6 1704.7,-936.5 1725.3,-936.5 1725.3,-936.5 1731.2,-936.5 
			1704.7,-912.6 1704.7,-897.5 1751.8,-897.5 1751.8,-912.6 1725.9,-912.6 1751.8,-936.5 		"/>
		<polygon class="st6" points="1610.9,-897.7 1610.9,-951.5 1626.8,-951.5 1626.8,-924.9 1639.3,-940.7 1651.9,-924.9 1652,-951.5 
			1667.9,-951.5 1667.9,-897.6 1652,-897.6 1639.5,-915.2 1626.8,-897.6 		"/>
		<g>
			<path class="st6" d="M1695.3-943.5c0,4.8-3.9,8.6-8.6,8.6c-4.8,0-8.6-3.9-8.6-8.6c0-4.8,3.9-8.6,8.6-8.6
				C1691.4-952.1,1695.3-948.3,1695.3-943.5"/>
		</g>
	</g>
	<g>
		<polygon class="st6" points="1830.2,-632.2 1821.4,-601 1812.6,-632.2 1796.7,-632.2 1812.1,-577.5 1814.8,-577.5 1828.1,-577.5 
			1830.7,-577.5 1846.1,-632.2 		"/>
		<g>
			<path class="st6" d="M1910.2-632.2v32h0c-0.2,5.8-4.9,10.5-10.8,10.7v0c-0.1,0-0.1,0-0.2,0c-0.1,0-0.1,0-0.2,0v0
				c-5.8-0.2-10.6-4.9-10.8-10.7h0v-32H1873v30.3c0.2,14.2,11.6,25.8,25.8,26.2v0c0.1,0,0.3,0,0.4,0c0.1,0,0.3,0,0.4,0v0
				c14.2-0.4,25.6-11.9,25.8-26.2v-30.3H1910.2z"/>
		</g>
		<polygon class="st6" points="1851.5,-632.2 1851.5,-602.1 1851.5,-585.9 1851.5,-577.4 1866,-577.4 1866,-595.9 1866,-612 
			1866,-632.2 		"/>
		<polygon class="st6" points="1678.9,-609.7 1678.9,-591.3 1678.9,-582.2 1678.9,-577.4 1694.4,-577.4 1694.4,-587.8 
			1694.4,-596.9 1694.4,-609.7 		"/>
		<polygon class="st6" points="1803.9,-577.7 1788.7,-631.6 1786.1,-631.6 1773.1,-631.6 1770.5,-631.6 1755.3,-577.7 
			1770.9,-577.7 1779.6,-608.5 1788.3,-577.7 		"/>
		<polygon class="st6" points="1751.8,-631.7 1704.7,-631.7 1704.7,-616.7 1725.3,-616.7 1725.3,-616.7 1731.2,-616.7 
			1704.7,-592.7 1704.7,-577.7 1751.8,-577.7 1751.8,-592.7 1725.9,-592.7 1751.8,-616.7 		"/>
		<polygon class="st6" points="1610.9,-577.9 1610.9,-631.6 1626.8,-631.6 1626.8,-605.1 1639.3,-620.8 1651.9,-605.1 1652,-631.6 
			1667.9,-631.6 1667.9,-577.7 1652,-577.8 1639.5,-595.3 1626.8,-577.8 		"/>
		<g>
			<path class="st6" d="M1695.3-623.7c0,4.8-3.9,8.6-8.6,8.6c-4.8,0-8.6-3.9-8.6-8.6c0-4.8,3.9-8.6,8.6-8.6
				C1691.4-632.3,1695.3-628.5,1695.3-623.7"/>
		</g>
	</g>
	<g>
		<g>
			<polygon class="st4" points="1084.6,-762.5 1084.6,-803.8 1054.4,-803.8 1054.4,-762.5 1069.5,-781.4 			"/>
			<polygon class="st4" points="1034.7,-803.9 1026.2,-803.9 1026.2,-795.4 1026.2,-763.9 1034.7,-763.9 1034.7,-795.4 
				1049.9,-795.4 1049.9,-803.9 			"/>
			<polygon class="st4" points="1104.3,-759.5 1104.3,-732.5 1085.3,-732.5 1069.7,-752.3 1054,-732.5 1034.7,-732.5 1034.7,-759.5 
				1026.2,-759.5 1026.2,-732.5 1026.2,-724 1034.7,-724 1075,-724 1077.4,-724 1104.3,-724 1112.8,-724 1112.8,-732.5 
				1112.8,-759.5 			"/>
			<polygon class="st4" points="1112.8,-803.9 1104.3,-803.9 1089.1,-803.9 1089.1,-795.4 1104.3,-795.4 1104.3,-763.9 
				1112.8,-763.9 1112.8,-795.4 			"/>
		</g>
		<g>
			<polygon class="st4" points="1315.3,-787.5 1308,-761.4 1300.6,-787.5 1287.3,-787.5 1300.2,-741.7 1302.4,-741.7 1313.5,-741.7 
				1315.7,-741.7 1328.6,-787.5 			"/>
			<g>
				<path class="st4" d="M1382.1-787.5v26.7h0c-0.2,4.9-4.1,8.8-9,8.9v0c0,0-0.1,0-0.1,0c0,0-0.1,0-0.1,0v0c-4.9-0.1-8.8-4.1-9-8.9
					h0v-26.7h-12.8v25.3c0.2,11.9,9.7,21.5,21.6,21.9v0c0.1,0,0.2,0,0.3,0c0.1,0,0.2,0,0.3,0v0c11.9-0.3,21.4-10,21.6-21.9v-25.3
					H1382.1z"/>
			</g>
			<polygon class="st4" points="1333.1,-787.5 1333.1,-762.3 1333.1,-748.8 1333.1,-741.7 1345.2,-741.7 1345.2,-757.1 
				1345.2,-770.6 1345.2,-787.5 			"/>
			<polygon class="st4" points="1188.9,-768.7 1188.9,-753.3 1188.9,-745.7 1188.9,-741.7 1201.8,-741.7 1201.8,-750.4 1201.8,-758 
				1201.8,-768.7 			"/>
			<polygon class="st4" points="1293.3,-742 1280.6,-787 1278.5,-787 1267.5,-787 1265.4,-787 1252.7,-742 1265.8,-742 1273,-767.6 
				1280.2,-742 			"/>
			<polygon class="st4" points="1249.7,-787.1 1210.4,-787.1 1210.4,-774.5 1227.7,-774.5 1227.7,-774.5 1232.5,-774.5 
				1210.4,-754.5 1210.4,-741.9 1249.7,-741.9 1249.7,-754.5 1228.1,-754.5 1249.7,-774.5 			"/>
			<polygon class="st4" points="1132,-742.1 1132,-787 1145.3,-787 1145.3,-764.8 1155.8,-778 1166.3,-764.8 1166.3,-787 
				1179.6,-787 1179.6,-742 1166.3,-742 1155.9,-756.7 1145.3,-742 			"/>
			<g>
				<path class="st4" d="M1202.5-780.4c0,4-3.2,7.2-7.2,7.2c-4,0-7.2-3.2-7.2-7.2c0-4,3.2-7.2,7.2-7.2
					C1199.3-787.6,1202.5-784.4,1202.5-780.4"/>
			</g>
		</g>
	</g>
	<g>
		<polygon class="st4" points="1188,-1106.5 1188,-1035.9 1213.8,-1068.2 1239.7,-1035.9 1239.7,-1106.5 		"/>
		<polygon class="st4" points="1140,-1106.6 1140,-1092 1140,-1038.4 1154.5,-1038.4 1154.5,-1092 1180.5,-1092 1180.5,-1106.6 
			1154.5,-1106.6 		"/>
		<polygon class="st4" points="1273.2,-984.8 1240.9,-984.8 1214.1,-1018.5 1187.4,-984.8 1154.5,-984.8 1154.5,-1030.9 
			1140,-1030.9 1140,-984.8 1140,-970.2 1154.5,-970.2 1223.3,-970.2 1227.3,-970.2 1273.2,-970.2 1287.7,-970.2 1287.7,-984.8 
			1287.7,-1030.9 1273.2,-1030.9 		"/>
		<polygon class="st4" points="1273.2,-1106.6 1247.2,-1106.6 1247.2,-1092 1273.2,-1092 1273.2,-1038.4 1287.7,-1038.4 
			1287.7,-1092 1287.7,-1106.6 		"/>
		<polygon class="st4" points="1275.9,-952 1267.1,-920.8 1258.3,-952 1242.4,-952 1257.8,-897.3 1260.5,-897.3 1273.7,-897.3 
			1276.4,-897.3 1291.8,-952 		"/>
		<g>
			<path class="st4" d="M1355.8-952v32h0c-0.2,5.8-4.9,10.5-10.8,10.7v0c-0.1,0-0.1,0-0.2,0s-0.1,0-0.2,0v0
				c-5.8-0.2-10.6-4.9-10.8-10.7h0v-32h-15.3v30.3c0.2,14.2,11.6,25.8,25.8,26.2v0c0.1,0,0.3,0,0.4,0c0.1,0,0.3,0,0.4,0v0
				c14.2-0.4,25.6-11.9,25.8-26.2V-952H1355.8z"/>
		</g>
		<polygon class="st4" points="1297.2,-952 1297.2,-921.9 1297.2,-905.8 1297.2,-897.2 1311.6,-897.2 1311.6,-915.7 1311.6,-931.9 
			1311.6,-952 		"/>
		<polygon class="st4" points="1124.6,-929.6 1124.6,-911.2 1124.6,-902 1124.6,-897.2 1140.1,-897.2 1140.1,-907.7 1140.1,-916.8 
			1140.1,-929.6 		"/>
		<polygon class="st4" points="1249.6,-897.6 1234.4,-951.4 1231.8,-951.4 1218.7,-951.4 1216.1,-951.4 1200.9,-897.6 
			1216.6,-897.6 1225.3,-928.3 1233.9,-897.6 		"/>
		<polygon class="st4" points="1197.4,-951.6 1150.4,-951.6 1150.4,-936.5 1171,-936.5 1171,-936.5 1176.9,-936.5 1150.4,-912.6 
			1150.4,-897.5 1197.4,-897.5 1197.4,-912.6 1171.6,-912.6 1197.4,-936.5 		"/>
		<polygon class="st4" points="1056.6,-897.7 1056.6,-951.5 1072.5,-951.5 1072.5,-924.9 1085,-940.7 1097.6,-924.9 1097.6,-951.5 
			1113.5,-951.5 1113.5,-897.6 1097.6,-897.6 1085.2,-915.2 1072.5,-897.6 		"/>
		<g>
			<path class="st4" d="M1140.9-943.5c0,4.8-3.9,8.6-8.6,8.6c-4.8,0-8.6-3.9-8.6-8.6c0-4.8,3.9-8.6,8.6-8.6
				C1137.1-952.1,1140.9-948.3,1140.9-943.5"/>
		</g>
	</g>
	<g>
		<polygon class="st4" points="1275.9,-632.2 1267.1,-601 1258.3,-632.2 1242.4,-632.2 1257.8,-577.5 1260.5,-577.5 1273.7,-577.5 
			1276.4,-577.5 1291.8,-632.2 		"/>
		<g>
			<path class="st4" d="M1355.8-632.2v32h0c-0.2,5.8-4.9,10.5-10.8,10.7v0c-0.1,0-0.1,0-0.2,0s-0.1,0-0.2,0v0
				c-5.8-0.2-10.6-4.9-10.8-10.7h0v-32h-15.3v30.3c0.2,14.2,11.6,25.8,25.8,26.2v0c0.1,0,0.3,0,0.4,0c0.1,0,0.3,0,0.4,0v0
				c14.2-0.4,25.6-11.9,25.8-26.2v-30.3H1355.8z"/>
		</g>
		<polygon class="st4" points="1297.2,-632.2 1297.2,-602.1 1297.2,-585.9 1297.2,-577.4 1311.6,-577.4 1311.6,-595.9 1311.6,-612 
			1311.6,-632.2 		"/>
		<polygon class="st4" points="1124.6,-609.7 1124.6,-591.3 1124.6,-582.2 1124.6,-577.4 1140.1,-577.4 1140.1,-587.8 
			1140.1,-596.9 1140.1,-609.7 		"/>
		<polygon class="st4" points="1249.6,-577.7 1234.4,-631.6 1231.8,-631.6 1218.7,-631.6 1216.1,-631.6 1200.9,-577.7 
			1216.6,-577.7 1225.3,-608.5 1233.9,-577.7 		"/>
		<polygon class="st4" points="1197.4,-631.7 1150.4,-631.7 1150.4,-616.7 1171,-616.7 1171,-616.7 1176.9,-616.7 1150.4,-592.7 
			1150.4,-577.7 1197.4,-577.7 1197.4,-592.7 1171.6,-592.7 1197.4,-616.7 		"/>
		<polygon class="st4" points="1056.6,-577.9 1056.6,-631.6 1072.5,-631.6 1072.5,-605.1 1085,-620.8 1097.6,-605.1 1097.6,-631.6 
			1113.5,-631.6 1113.5,-577.7 1097.6,-577.8 1085.2,-595.3 1072.5,-577.8 		"/>
		<g>
			<path class="st4" d="M1140.9-623.7c0,4.8-3.9,8.6-8.6,8.6c-4.8,0-8.6-3.9-8.6-8.6c0-4.8,3.9-8.6,8.6-8.6
				C1137.1-632.3,1140.9-628.5,1140.9-623.7"/>
		</g>
	</g>
	<g>
	</g>
	<g>
	</g>
	<g>
	</g>
	<g>
	</g>
	<g>
	</g>
	<g>
	</g>
</g>
</svg>
