<svg width="84" height="16" viewBox="0 0 84 16" fill="none" xmlns="http://www.w3.org/2000/svg">
                        <path d="M4.36 15H7.72L9.04 10.14C9.32 9.06 9.62 8.02 9.9 6.82H10C10.3 8.02 10.6 9.04 10.88 10.12L12.26 15H15.72L18.94 3.76H16.2L14.72 9.34C14.44 10.42 14.26 11.52 14 12.6H13.88C13.58 11.52 13.28 10.44 12.96 9.34L11.34 3.76H8.74L7.18 9.4C6.86 10.46 6.58 11.52 6.32 12.6H6.2C5.92 11.52 5.66 10.44 5.42 9.34L3.9 3.76H0.98L4.36 15ZM21.4355 3.22266V0.683594H24.1797V3.22266H21.4355ZM21.4355 15V4.62891H24.1797V15H21.4355ZM27.0117 0.683594H32.2949C33.4863 0.683594 34.3945 0.77474 35.0195 0.957031C35.8594 1.20443 36.5788 1.64388 37.1777 2.27539C37.7767 2.9069 38.2324 3.68164 38.5449 4.59961C38.8574 5.51107 39.0137 6.63737 39.0137 7.97852C39.0137 9.1569 38.8672 10.1725 38.5742 11.0254C38.2161 12.0671 37.7051 12.9102 37.041 13.5547C36.5397 14.043 35.8626 14.4238 35.0098 14.6973C34.3717 14.8991 33.5189 15 32.4512 15H27.0117V0.683594ZM29.9023 3.10547V12.5879H32.0605C32.8678 12.5879 33.4505 12.5423 33.8086 12.4512C34.2773 12.334 34.6647 12.1354 34.9707 11.8555C35.2832 11.5755 35.5371 11.1165 35.7324 10.4785C35.9277 9.83398 36.0254 8.95833 36.0254 7.85156C36.0254 6.74479 35.9277 5.89518 35.7324 5.30273C35.5371 4.71029 35.2637 4.24805 34.9121 3.91602C34.5605 3.58398 34.1146 3.35938 33.5742 3.24219C33.1706 3.15104 32.3796 3.10547 31.2012 3.10547H29.9023ZM41.4355 15V0.683594H45.7617L48.3594 10.4492L50.9277 0.683594H55.2637V15H52.5781V3.73047L49.7363 15H46.9531L44.1211 3.73047V15H41.4355ZM57.4023 10.3418L60.2148 10.0684C60.3841 11.0124 60.7259 11.7057 61.2402 12.1484C61.7611 12.5911 62.4609 12.8125 63.3398 12.8125C64.2708 12.8125 64.9707 12.6172 65.4395 12.2266C65.9147 11.8294 66.1523 11.3672 66.1523 10.8398C66.1523 10.5013 66.0514 10.2148 65.8496 9.98047C65.6543 9.73958 65.3092 9.53125 64.8145 9.35547C64.4759 9.23828 63.7044 9.02995 62.5 8.73047C60.9505 8.34635 59.8633 7.87435 59.2383 7.31445C58.3594 6.52669 57.9199 5.56641 57.9199 4.43359C57.9199 3.70443 58.125 3.02409 58.5352 2.39258C58.9518 1.75456 59.5475 1.26953 60.3223 0.9375C61.1035 0.605469 62.0443 0.439453 63.1445 0.439453C64.9414 0.439453 66.2923 0.833333 67.1973 1.62109C68.1087 2.40885 68.5872 3.46029 68.6328 4.77539L65.7422 4.90234C65.6185 4.16667 65.3516 3.63932 64.9414 3.32031C64.5378 2.99479 63.929 2.83203 63.1152 2.83203C62.2754 2.83203 61.6178 3.00456 61.1426 3.34961C60.8366 3.57096 60.6836 3.86719 60.6836 4.23828C60.6836 4.57682 60.8268 4.86654 61.1133 5.10742C61.4779 5.41341 62.3633 5.73242 63.7695 6.06445C65.1758 6.39648 66.2142 6.74154 66.8848 7.09961C67.5618 7.45117 68.0892 7.9362 68.4668 8.55469C68.8509 9.16667 69.043 9.92513 69.043 10.8301C69.043 11.6504 68.8151 12.4186 68.3594 13.1348C67.9036 13.8509 67.2591 14.3848 66.4258 14.7363C65.5924 15.0814 64.554 15.2539 63.3105 15.2539C61.5007 15.2539 60.1107 14.8372 59.1406 14.0039C58.1706 13.1641 57.5911 11.9434 57.4023 10.3418ZM71.4844 0.683594H77.207C78.3398 0.683594 79.1829 0.732422 79.7363 0.830078C80.2962 0.921224 80.7943 1.11654 81.2305 1.41602C81.6732 1.71549 82.041 2.11589 82.334 2.61719C82.627 3.11198 82.7734 3.66862 82.7734 4.28711C82.7734 4.95768 82.5911 5.57292 82.2266 6.13281C81.8685 6.69271 81.3802 7.11263 80.7617 7.39258C81.6341 7.64648 82.3047 8.07943 82.7734 8.69141C83.2422 9.30339 83.4766 10.0228 83.4766 10.8496C83.4766 11.5007 83.3236 12.1354 83.0176 12.7539C82.7181 13.3659 82.3047 13.8574 81.7773 14.2285C81.2565 14.5931 80.612 14.8177 79.8438 14.9023C79.362 14.9544 78.1999 14.987 76.3574 15H71.4844V0.683594ZM74.375 3.06641V6.37695H76.2695C77.3958 6.37695 78.0957 6.36068 78.3691 6.32812C78.8639 6.26953 79.2513 6.10026 79.5312 5.82031C79.8177 5.53385 79.9609 5.15951 79.9609 4.69727C79.9609 4.25456 79.8372 3.89648 79.5898 3.62305C79.349 3.3431 78.9876 3.17383 78.5059 3.11523C78.2194 3.08268 77.3958 3.06641 76.0352 3.06641H74.375ZM74.375 8.75977V12.5879H77.0508C78.0924 12.5879 78.7533 12.5586 79.0332 12.5C79.4629 12.4219 79.8112 12.2331 80.0781 11.9336C80.3516 11.6276 80.4883 11.2207 80.4883 10.7129C80.4883 10.2832 80.3841 9.91862 80.1758 9.61914C79.9674 9.31966 79.6647 9.10156 79.2676 8.96484C78.877 8.82812 78.0241 8.75977 76.709 8.75977H74.375Z" fill="url(#paint0_linear_143_2173)" />
                        <defs>
                            <linearGradient id="paint0_linear_143_2173" x1="19.9621" y1="-3" x2="59.7272" y2="20.2719" gradientUnits="userSpaceOnUse">
                                <stop stop-color="#006D94" />
                                <stop offset="1" stop-color="#33B3BB" />
                            </linearGradient>
                        </defs>
                    </svg>